<?xml version="1.0" encoding="UTF-8" standalone="no"?>
<!DOCTYPE svg PUBLIC "-//W3C//DTD SVG 1.1//EN" "http://www.w3.org/Graphics/SVG/1.1/DTD/svg11.dtd">
<svg xmlns="http://www.w3.org/2000/svg" xmlns:xlink="http://www.w3.org/1999/xlink" version="1.1" width="245.947pt" height="181.491pt" viewBox="0 0 245.947 181.491">
<g enable-background="new">
<g id="Layer-1" data-name="Layer 1">
<clipPath id="cp5">
<path transform="matrix(1,0,0,-1,0,181.491)" d="M 0 181.491 L 245.947 181.491 L 245.947 0 L 0 0 Z "/>
</clipPath>
<g clip-path="url(#cp5)">
<path transform="matrix(1,0,0,-1,90.0771,48.253694)" d="M 0 0 L -42.031 -12.801 L -20.043 -23.66 L -61.793 -85.451 L -42.311 -98.254 L 127.203 -51.213 C 127.203 -51.213 107.998 -32.285 107.162 -32.285 C 106.326 -32.285 106.049 -4.174 106.049 -4.174 L 72.648 -20.875 L 60.402 14.475 Z " fill="#030404"/>
<path transform="matrix(1,0,0,-1,91.208,59.163896)" d="M 0 0 L 1.607 1.221 L 7.771 6.201 L 8.941 .389 L 6.639 -4.529 L 4.783 -1.881 L 1.816 -18.361 L 5.719 -19.936 L 9.611 -11.621 L 12.863 -11.012 L 9.033 -24.33 L 3.725 -24.43 L -3.725 -20.033 " fill="#ffffff"/>
<path transform="matrix(1,0,0,-1,103.9424,83.1092)" d="M 0 0 L -1.74 32.27 L 2.707 29 L 4.574 10.844 L 9.582 15.209 L 15.152 15.207 Z " fill="#ffffff"/>
<path transform="matrix(1,0,0,-1,133.1084,66.1072)" d="M 0 0 L -2.229 -4.539 L -1.615 -11.201 L -5.334 -10.326 L -5.764 -6.986 L -10.813 -10.553 L -15.436 -8.066 L -17.33 12.508 L -12.795 9.791 L -12.504 5.781 L -11.5 -6.676 L -6.668 -3.416 L -8.449 16.238 L -3.959 13.207 L -2.639 -.189 L -2.541 -1.209 Z " fill="#ffffff"/>
<path transform="matrix(1,0,0,-1,134.2744,48.73419)" d="M 0 0 L 1.158 -4.59 L 1.24 -4.451 L 3.982 1.963 Z M 7.746 -8.932 C 7.354 -9.17 1.756 -12.424 1.756 -12.424 L 2.225 -16.994 Z M 13.625 -8.604 L 3.258 -22.184 L 1.459 -24.582 L -3.369 -25.236 L -.855 -21.492 L -2.459 -9.029 L -3.25 -1.689 L -3.27 -1.615 L -8.318 -1.646 L 3.199 5.891 L 9.764 3.027 L 3.09 -7.541 L 9.125 -3.666 Z " fill="#ffffff"/>
<path transform="matrix(1,0,0,-1,65.1084,110.326)" d="M 0 0 C .35 .92 .707 1.924 1.078 3.012 C 1.453 4.096 1.809 5.113 2.15 6.059 C 2.527 7.172 2.908 8.275 3.295 9.367 L -.258 6.836 Z M 7.791 13.676 L 2 -4.281 L .123 -2.617 L 1.527 -16.938 L -2.541 -13.281 L -4.402 3.947 L -6.449 2.572 L -9 4.551 L 3.295 14.584 Z " fill="#ffffff"/>
<path transform="matrix(1,0,0,-1,83.9014,97.6111)" d="M 0 0 L -5.922 -2.977 L -5.697 -9.381 C -5.697 -9.381 -.584 -1.146 0 0 M -2.334 -11.125 L 5.402 -18.084 L 3.955 -23.158 C 3.891 -23.012 -4.947 -14.469 -5.396 -14.078 L -4.857 -26.457 L -8.709 -23.289 L -10.074 -5.223 L -11.834 -6.289 L -14.459 -3.039 L -.75 3.961 L 5.967 2.373 Z " fill="#ffffff"/>
<path transform="matrix(1,0,0,-1,93.8994,112.7752)" d="M 0 0 L 3.875 13.625 L -1.063 16.188 L -4.688 3.375 Z M 7.688 15.563 L 5.613 6.922 L 2.063 -7.25 L -8.813 2.75 L -3.25 21.438 Z " fill="#ffffff"/>
<path transform="matrix(1,0,0,-1,127.3369,104.6502)" d="M 0 0 L 3.875 13.625 L -1.063 16.188 L -4.688 3.375 Z M 7.688 15.563 L 5.615 6.922 L 2.063 -7.25 L -8.813 2.75 L -3.25 21.438 Z " fill="#ffffff"/>
<path transform="matrix(1,0,0,-1,121.0869,110.6502)" d="M 0 0 L -3 -4.875 L -6.264 12.668 L -9.938 -5.688 L -15.719 8.916 L -14.875 -7.063 L -19 -3.125 L -20.563 22.313 L -15.551 20.879 L -10.75 7.938 L -8.688 21.688 L -3.75 25.875 Z " fill="#ffffff"/>
<path transform="matrix(1,0,0,-1,139.6494,82.9627)" d="M 0 0 L 3.234 -23.67 L -1.438 -20.625 L -4.15 -1.359 L -9.375 -3.125 L -13.957 -1.73 L 2.375 4.75 L 7.125 2.5 Z " fill="#ffffff"/>
<path transform="matrix(1,0,0,-1,157.8994,94.0877)" d="M 0 0 L 4.125 -.688 L -5.938 -9.063 L -11.375 -8.063 L -7.5 -4.875 L -8.188 3.375 L -11.438 4.625 L -8.857 6.896 L -9.623 11.996 L -11.375 11.25 L -14.375 13.625 L -3.188 20 L 1.875 18.896 L -5.813 14.75 L -5.188 10 L -2.875 11.896 L 1.805 11.725 L -4.674 5.941 L -3.375 -2.5 Z " fill="#ffffff"/>
<path transform="matrix(1,0,0,-1,187.6494,86.9217)" d="M 0 0 L .375 -4.438 L -8 -8.188 L -12.926 -7.387 L -4.75 -1.688 L -14.438 8.555 L -7.438 18.875 L -2.742 20.033 L -1.125 15.75 L -3.313 9.75 L -5.125 14.688 L -9.082 9.871 Z " fill="#ffffff"/>
<path transform="matrix(1,0,0,-1,171.1514,73.2361)" d="M 0 0 L -5.922 -2.977 L -5.697 -9.381 C -5.697 -9.381 -.584 -1.146 0 0 M -2.334 -11.125 L 4.373 -17.123 L 3.955 -23.158 C 3.891 -23.012 -4.947 -14.469 -5.396 -14.078 L -4.857 -26.457 L -8.709 -23.289 L -10.074 -5.223 L -11.293 -5.959 L -16.127 -3.959 L -.75 3.961 L 5.967 2.373 Z " fill="#ffffff"/>
</g>
</g>
</g>
</svg>
