<?xml version="1.0" encoding="UTF-8" standalone="no"?>
<!DOCTYPE svg PUBLIC "-//W3C//DTD SVG 1.1//EN" "http://www.w3.org/Graphics/SVG/1.1/DTD/svg11.dtd">
<svg xmlns="http://www.w3.org/2000/svg" xmlns:xlink="http://www.w3.org/1999/xlink" version="1.1" width="382.481pt" height="181.491pt" viewBox="0 0 382.481 181.491">
<g enable-background="new">
<g id="Layer-1" data-name="Layer 1">
<path transform="matrix(1,0,0,-1,0,181.491)" d="M 0 0 L 382.481 0 L 382.481 181.491 L 0 181.491 Z " fill="#040505"/>
<clipPath id="cp0">
<path transform="matrix(1,0,0,-1,0,181.491)" d="M 0 181.491 L 382.481 181.491 L 382.481 0 L 0 0 Z "/>
</clipPath>
<g clip-path="url(#cp0)">
<path transform="matrix(1,0,0,-1,223.8359,45.497804)" d="M 0 0 L -42.031 -12.802 L -20.043 -23.661 L -61.793 -85.452 L -42.311 -98.255 L 127.203 -51.214 C 127.203 -51.214 107.998 -32.286 107.162 -32.286 C 106.326 -32.286 106.049 -4.174 106.049 -4.174 L 72.648 -20.875 L 60.402 14.475 Z " fill="#ffffff"/>
<path transform="matrix(1,0,0,-1,224.9668,56.408998)" d="M 0 0 L 1.607 1.221 L 7.771 6.202 L 8.943 .389 L 6.639 -4.528 L 4.783 -1.881 L 1.818 -18.361 L 5.719 -19.936 L 9.611 -11.62 L 12.863 -11.011 L 9.033 -24.329 L 3.725 -24.429 L -3.725 -20.032 " fill="#000000"/>
<path transform="matrix(1,0,0,-1,237.7012,80.3538)" d="M 0 0 L -1.74 32.27 L 2.708 29 L 4.574 10.843 L 9.583 15.209 L 15.152 15.207 Z " fill="#000000"/>
<path transform="matrix(1,0,0,-1,266.8682,63.3518)" d="M 0 0 L -2.229 -4.539 L -1.616 -11.201 L -5.335 -10.326 L -5.765 -6.986 L -10.813 -10.552 L -15.437 -8.066 L -17.331 12.507 L -12.794 9.791 L -12.505 5.781 L -11.501 -6.675 L -6.667 -3.417 L -8.45 16.239 L -3.959 13.208 L -2.64 -.19 L -2.542 -1.208 Z " fill="#000000"/>
<path transform="matrix(1,0,0,-1,268.0332,45.978303)" d="M 0 0 L 1.158 -4.591 L 1.24 -4.452 L 3.982 1.962 Z M 7.746 -8.933 C 7.354 -9.171 1.756 -12.425 1.756 -12.425 L 2.225 -16.995 Z M 13.626 -8.604 L 3.258 -22.184 L 1.46 -24.583 L -3.369 -25.236 L -.855 -21.492 L -2.459 -9.029 L -3.25 -1.689 L -3.27 -1.615 L -8.318 -1.646 L 3.199 5.891 L 9.764 3.027 L 3.09 -7.541 L 9.126 -3.667 Z " fill="#000000"/>
<path transform="matrix(1,0,0,-1,198.8672,107.5711)" d="M 0 0 C .35 .92 .707 1.924 1.078 3.012 C 1.453 4.096 1.809 5.113 2.15 6.059 C 2.527 7.172 2.908 8.275 3.295 9.367 L -.258 6.836 Z M 7.792 13.677 L 2 -4.281 L .123 -2.617 L 1.527 -16.938 L -2.541 -13.281 L -4.402 3.947 L -6.449 2.572 L -9 4.552 L 3.295 14.584 Z " fill="#000000"/>
<path transform="matrix(1,0,0,-1,217.6606,94.8553)" d="M 0 0 L -5.922 -2.978 L -5.698 -9.382 C -5.698 -9.382 -.584 -1.146 0 0 M -2.333 -11.126 L 5.402 -18.085 L 3.955 -23.159 C 3.89 -23.013 -4.948 -14.47 -5.397 -14.079 L -4.858 -26.458 L -8.709 -23.29 L -10.075 -5.224 L -11.833 -6.289 L -14.458 -3.039 L -.75 3.96 L 5.966 2.372 Z " fill="#000000"/>
<path transform="matrix(1,0,0,-1,227.6592,110.020298)" d="M 0 0 L 3.875 13.625 L -1.063 16.188 L -4.688 3.375 Z M 7.688 15.563 L 5.614 6.922 L 2.063 -7.25 L -8.813 2.75 L -3.25 21.438 Z " fill="#000000"/>
<path transform="matrix(1,0,0,-1,261.0972,101.895298)" d="M 0 0 L 3.875 13.625 L -1.063 16.188 L -4.688 3.375 Z M 7.688 15.563 L 5.614 6.922 L 2.063 -7.25 L -8.813 2.75 L -3.25 21.438 Z " fill="#000000"/>
<path transform="matrix(1,0,0,-1,254.8472,107.895298)" d="M 0 0 L -3 -4.875 L -6.265 12.668 L -9.938 -5.688 L -15.72 8.916 L -14.875 -7.063 L -19 -3.125 L -20.563 22.313 L -15.552 20.878 L -10.75 7.938 L -8.688 21.688 L -3.75 25.875 Z " fill="#000000"/>
<path transform="matrix(1,0,0,-1,273.4097,80.207798)" d="M 0 0 L 3.233 -23.67 L -1.438 -20.625 L -4.152 -1.359 L -9.375 -3.125 L -13.958 -1.729 L 2.375 4.75 L 7.125 2.5 Z " fill="#000000"/>
<path transform="matrix(1,0,0,-1,291.6597,91.332798)" d="M 0 0 L 4.125 -.688 L -5.938 -9.063 L -11.375 -8.063 L -7.5 -4.875 L -8.188 3.375 L -11.438 4.625 L -8.859 6.896 L -9.625 11.996 L -11.375 11.25 L -14.375 13.625 L -3.188 20 L 1.875 18.896 L -5.813 14.75 L -5.188 10 L -2.875 11.896 L 1.803 11.726 L -4.675 5.941 L -3.375 -2.5 Z " fill="#000000"/>
<path transform="matrix(1,0,0,-1,321.4097,84.1663)" d="M 0 0 L .375 -4.438 L -8 -8.188 L -12.927 -7.387 L -4.75 -1.688 L -14.439 8.554 L -7.438 18.875 L -2.744 20.032 L -1.125 15.75 L -3.313 9.75 L -5.125 14.688 L -9.083 9.87 Z " fill="#000000"/>
<path transform="matrix(1,0,0,-1,304.9106,70.4803)" d="M 0 0 L -5.922 -2.978 L -5.698 -9.382 C -5.698 -9.382 -.584 -1.146 0 0 M -2.333 -11.126 L 4.374 -17.124 L 3.955 -23.159 C 3.89 -23.013 -4.948 -14.47 -5.397 -14.079 L -4.858 -26.458 L -8.709 -23.29 L -10.075 -5.224 L -11.293 -5.959 L -16.126 -3.959 L -.75 3.96 L 5.966 2.372 Z " fill="#000000"/>
<path transform="matrix(1,0,0,-1,156.1992,93.0515)" d="M 0 0 C -.086 1.146 -.234 2.521 -.549 3.966 C -.979 5.814 -.123 7.189 -.047 7.337 C .182 7.787 .332 8.326 .367 8.955 C .5 11.363 -.51 13.794 -1.406 15.644 C -1.775 16.405 -2.184 17.13 -2.625 17.827 C -3.514 19.149 -2.832 22.294 -2.781 22.463 C -2.363 24.075 -3.131 24.491 -4.959 27.802 C -5.078 28.018 -5.176 28.188 -5.232 28.297 C -5.561 29.082 -5.646 30.697 -5.43 32.08 C -5.299 32.939 -5.105 33.814 -4.904 34.734 C -4.738 35.507 -4.563 36.307 -4.414 37.131 C -3.848 40.318 -3.404 44.218 -3.969 47.485 C -4.314 49.501 -5.152 51.558 -6.313 53.274 C -7.262 54.678 -9.307 56.763 -11.555 56.913 C -11.787 56.931 -12.023 56.936 -12.254 56.936 C -13.248 56.936 -14.045 56.79 -14.807 56.649 C -15.049 56.61 -15.301 56.56 -15.572 56.518 C -18.76 56.016 -21.898 54.752 -24.895 54.752 C -26.797 54.752 -28.629 54.858 -30.35 55.067 C -32.764 55.355 -35.227 55.895 -37.674 56.665 C -38.369 56.882 -39.105 57.13 -39.93 57.413 C -40.592 57.64 -41.262 57.919 -41.969 58.216 C -42.918 58.614 -43.902 59.026 -44.977 59.354 C -46.799 59.911 -48.445 60.185 -50.01 60.185 C -50.715 60.185 -51.406 60.126 -52.063 60.014 C -52.975 59.854 -53.84 59.594 -54.607 59.364 C -55.33 59.148 -56.174 58.952 -56.551 58.952 C -56.918 58.952 -57.762 59.148 -58.484 59.364 C -59.25 59.594 -60.119 59.854 -61.027 60.014 C -61.684 60.126 -62.377 60.183 -63.084 60.183 C -64.646 60.183 -66.297 59.911 -68.115 59.354 C -69.193 59.026 -70.174 58.614 -71.125 58.216 C -71.834 57.919 -72.5 57.64 -73.158 57.413 C -73.984 57.13 -74.727 56.882 -75.42 56.665 C -77.869 55.892 -80.332 55.355 -82.744 55.065 C -84.465 54.856 -86.301 54.752 -88.199 54.752 C -91.195 54.752 -94.328 56.016 -97.518 56.518 C -97.79 56.56 -98.041 56.61 -98.284 56.649 C -99.051 56.79 -99.842 56.936 -100.841 56.936 C -101.07 56.936 -101.306 56.931 -101.538 56.913 C -103.786 56.763 -105.833 54.678 -106.781 53.274 C -107.942 51.558 -108.775 49.5 -109.125 47.481 C -109.688 44.218 -109.241 40.318 -108.678 37.129 C -108.531 36.307 -108.357 35.507 -108.188 34.732 C -107.987 33.814 -107.794 32.939 -107.661 32.08 C -107.441 30.697 -107.533 29.082 -107.865 28.297 C -107.92 28.188 -108.015 28.018 -108.135 27.802 C -109.965 24.491 -110.732 24.075 -110.309 22.461 C -110.264 22.294 -109.578 20.536 -110.47 19.212 C -110.908 18.512 -111.318 16.405 -111.686 15.644 C -112.586 13.794 -113.594 11.363 -113.462 8.955 C -113.422 8.32 -113.275 7.787 -113.047 7.337 C -112.971 7.187 -112.116 5.814 -112.545 3.966 C -112.858 2.521 -113.006 1.146 -113.089 0 C -113.152 -.793 -113.227 -3.057 -113.232 -3.242 C -113.262 -4.023 -113.172 -5.297 -112.258 -6.262 C -112.171 -6.348 -110.787 -7.396 -110.787 -10.123 C -110.787 -11.986 -110.47 -13.9 -109.847 -15.813 C -109.293 -17.49 -108.391 -18.279 -107.586 -18.643 C -106.185 -19.33 -105.774 -20.303 -105.552 -21.307 C -104.985 -23.787 -104.043 -26.189 -102.792 -28.342 L -102.77 -28.379 C -102.49 -28.873 -101.714 -30.244 -100.205 -30.609 C -98.989 -30.875 -97.763 -31.631 -97.232 -32.766 C -96.967 -33.271 -96.641 -33.859 -96.26 -34.439 C -95.344 -35.842 -93.865 -37.803 -91.625 -38.629 C -91.371 -38.729 -90.729 -38.828 -90.459 -38.828 C -88.758 -38.828 -87.164 -40.275 -87.072 -40.365 C -86.342 -41.105 -85.559 -41.783 -84.725 -42.389 L -84.455 -42.584 C -83.508 -43.281 -82.318 -44.15 -80.891 -44.629 C -77.48 -45.682 -75.779 -47.51 -74.9 -49.072 C -72.705 -52.803 -70.414 -53.598 -68.844 -53.945 C -68.615 -53.994 -68.387 -54.02 -68.158 -54.02 C -67.619 -54.02 -65.926 -53.6 -64.867 -54.361 C -63.932 -54.998 -63.277 -55.307 -62.334 -55.307 C -62.201 -55.307 -62.074 -55.301 -61.943 -55.289 L -61.83 -55.275 L -61.715 -55.252 C -61.564 -55.221 -61.424 -55.186 -61.287 -55.146 C -60.807 -54.979 -59.529 -54.895 -58.5 -55.637 C -57.939 -55.986 -57.441 -56.244 -56.691 -56.244 C -55.947 -56.244 -55.449 -55.986 -54.885 -55.637 C -53.859 -54.895 -52.582 -54.979 -52.1 -55.146 C -51.963 -55.186 -51.82 -55.221 -51.672 -55.252 L -51.559 -55.275 L -51.441 -55.289 C -51.318 -55.301 -51.184 -55.307 -51.057 -55.307 C -50.111 -55.307 -49.457 -54.998 -48.518 -54.361 C -47.463 -53.6 -45.768 -54.02 -45.23 -54.02 C -45.002 -54.02 -44.773 -53.994 -44.545 -53.945 C -42.973 -53.598 -40.385 -52.803 -38.189 -49.072 C -37.313 -47.51 -35.615 -45.682 -32.199 -44.629 C -30.773 -44.15 -29.588 -43.281 -28.639 -42.584 L -28.371 -42.389 C -27.537 -41.783 -26.752 -41.105 -26.02 -40.365 C -25.93 -40.275 -24.334 -38.828 -22.635 -38.828 C -22.365 -38.828 -21.727 -38.729 -21.471 -38.629 C -19.229 -37.803 -17.752 -35.842 -16.836 -34.439 C -16.453 -33.859 -16.129 -33.271 -15.863 -32.766 C -15.33 -31.631 -14.105 -30.875 -12.887 -30.609 C -11.379 -30.244 -10.604 -28.873 -10.324 -28.379 L -10.303 -28.342 C -9.047 -26.189 -8.109 -23.787 -7.541 -21.307 C -7.316 -20.303 -6.908 -19.33 -5.508 -18.643 C -4.705 -18.279 -3.801 -17.49 -3.25 -15.813 C -2.623 -13.9 -2.303 -11.986 -2.303 -10.123 C -2.303 -7.396 -.924 -6.348 -.838 -6.256 C -.008 -5.389 .143 -4.26 .146 -3.473 C .146 -3.186 .057 -.793 0 0 " fill="#000000"/>
<path transform="matrix(1,0,0,-1,88.8867,123.8347)" d="M 0 0 C -.727 .002 -.223 -5.582 -.121 -6.268 C .004 -7.061 .25 -7.885 .719 -7.861 C 1.377 -7.822 2.818 -7.096 3.086 -6.424 C 3.195 -6.145 3.148 -5.775 3.018 -5.381 C 2.609 -4.131 .432 -.008 0 0 " fill="#ffffff"/>
<path transform="matrix(1,0,0,-1,95.5527,127.12579)" d="M 0 0 C -.229 .555 -1.248 .541 -1.629 .332 C -2.369 -.072 -2.137 -.766 -2.027 -1.488 C -1.943 -2.053 -1.818 -2.934 -1.277 -3.184 C -.984 -3.318 -.35 -3.164 -.184 -2.813 C .119 -2.166 .238 -.762 .02 -.064 C .012 -.043 .008 -.021 0 0 " fill="#ffffff"/>
<path transform="matrix(1,0,0,-1,97.8574,126.166797)" d="M 0 0 C -.361 -.049 -.84 -.219 -.84 -.717 C -.84 -1.547 -.93 -3.232 -.066 -3.635 C .832 -4.053 1.002 -2.705 1.059 -2.027 C 1.107 -1.422 1.162 -.771 .947 -.371 C .797 -.098 .51 .063 0 0 " fill="#ffffff"/>
<path transform="matrix(1,0,0,-1,85.459,113.270298)" d="M 0 0 C .775 -1.43 1.318 .652 1.453 1.385 C 1.643 2.414 1.93 6.17 1.883 6.922 C 1.834 6.918 -2.385 7.125 -2.373 7.271 C -2.418 6.611 -.541 1.002 0 0 " fill="#ffffff"/>
<path transform="matrix(1,0,0,-1,70.9082,80.1365)" d="M 0 0 C .482 .314 .855 -.572 1.084 -.848 C 1.996 -1.976 3.025 -2.724 4.408 -3.151 C 5.246 -3.407 6.047 -3.425 6.92 -3.528 C 7.057 -3.544 7.332 -3.564 7.447 -3.619 C 8.434 -4.078 6.311 -4.921 6.008 -5.005 C 4.742 -5.357 3.188 -5.484 1.986 -4.865 C .961 -4.337 .256 -3.278 -.113 -2.21 C -.27 -1.75 -.502 -.332 0 0 M 2.121 4.677 C 2.496 4.939 3.131 4.027 3.318 3.762 C 3.711 3.208 4.127 2.703 4.66 2.273 C 6.34 .914 8.572 .479 10.543 .381 C 11.236 .345 11.926 .432 12.615 .395 C 12.811 .387 13.205 .309 13.301 .085 C 13.316 .043 13.324 0 13.316 -.054 C 13.291 -.279 12.852 -.545 12.678 -.664 C 11.756 -1.298 10.336 -1.678 9.225 -1.761 C 8.049 -1.851 6.854 -1.679 5.738 -1.282 C 4.32 -.771 3.193 .152 2.463 1.47 C 2.078 2.172 1.533 4.273 2.121 4.677 M .482 -7.167 C 1.063 -7.957 1.729 -8.902 2.264 -9.66 C 3.262 -11.076 3.135 -9.621 3.92 -8.611 C 4.223 -8.224 4.266 -7.839 4.721 -7.626 C 5.346 -7.33 6.367 -7.597 7.316 -6.955 C 7.813 -6.621 8.697 -5.173 9.205 -4.861 C 9.74 -4.523 12.012 -6.052 13.396 -5.531 C 14.168 -5.24 14.307 -1.985 15.139 -1.676 C 15.533 -1.53 15.98 -1.529 16.385 -1.431 C 17.604 -1.132 17.281 .456 17.148 1.416 C 17.037 2.178 16.967 3.469 15.246 3.154 C 13.535 2.838 12.188 2.761 10.551 2.961 C 9.178 3.171 7.848 3.648 6.844 4.398 C 5.746 5.227 5.018 6.398 4.33 7.567 C 4.002 8.119 3.482 8.988 2.736 8.941 C .594 8.799 .629 6.164 .52 4.563 C .49 4.118 .662 2.254 .129 2.025 C -.279 1.842 -.791 2.355 -1.014 2.654 C -1.48 3.282 -1.822 4.9 -2.029 5.1 C -2.248 5.271 -2.615 .021 -3.904 -1.761 C -4.332 -2.355 -4.994 -2.739 -5.271 -3.438 C -5.494 -4.009 -5.48 -4.642 -5.264 -5.214 C -5.045 -5.794 -4.346 -7.033 -4.029 -7.712 C -3.711 -8.396 -3.217 -10.064 -3.217 -11.173 C -3.217 -12.286 -4.039 -15.292 -3.43 -17.146 C -2.984 -18.489 -1.479 -19.79 -.199 -20.286 C .477 -20.554 1.314 -20.685 1.803 -20.04 C 2.518 -19.085 1.98 -17.872 1.432 -17.007 C 1.109 -16.501 .836 -15.964 .598 -15.413 C .02 -14.071 -.361 -11.831 -.688 -10.404 C -.959 -9.224 -1.006 -9.595 -1.215 -8.408 C -1.311 -7.869 -.709 -5.492 .482 -7.167 " fill="#ffffff"/>
<path transform="matrix(1,0,0,-1,90.9766,109.29369)" d="M 0 0 C -.256 -.461 -.303 -1.094 -.357 -1.643 C -.408 -2.107 -.557 -3.432 .041 -3.432 C .529 -3.432 1.08 -3.477 1.26 -2.695 C 1.367 -2.217 1.174 -.434 .662 .146 C .418 .387 .182 .322 0 0 " fill="#ffffff"/>
<path transform="matrix(1,0,0,-1,93.9121,109.039798)" d="M 0 0 C -.266 -.465 -.363 -2.65 -.094 -2.846 C .178 -3.039 .453 -3.045 .748 -3.008 C 1.139 -2.959 1.502 -2.805 1.574 -2.324 C 1.66 -1.688 1.584 .533 .785 .533 C .479 .533 .158 .273 0 0 " fill="#ffffff"/>
<path transform="matrix(1,0,0,-1,98.2754,107.9637)" d="M 0 0 C -.152 .111 -.326 .154 -.527 .104 C -1.061 -.031 -1.314 -.809 -1.377 -1.395 C -1.434 -1.959 -1.443 -2.67 -1.314 -3.213 C -1.232 -3.547 -1.189 -3.604 -.91 -3.621 C -.506 -3.65 .336 -3.74 .51 -3.172 C .711 -2.504 .703 -1.412 .475 -.738 C .371 -.447 .223 -.16 0 0 " fill="#ffffff"/>
<path transform="matrix(1,0,0,-1,106.2656,86.9954)" d="M 0 0 C -.953 0 -3.422 -.754 -6.619 -.754 C -9.818 -.754 -12.195 0 -13.365 0 C -14.541 0 -14.773 -1.143 -13.766 -2.535 C -13.238 -3.279 -11.959 -4.869 -11.373 -4.605 C -10.684 -4.299 -12.059 -3.057 -11.947 -2.588 C -11.826 -2.086 -11.082 -2.209 -10.705 -2.281 C -8.744 -2.664 -7.412 -2.504 -7.92 -4.027 C -8.316 -4.871 -9.186 -5.421 -9.752 -5.892 C -10.352 -6.402 -9.33 -7.308 -8.984 -7.628 C -8.311 -8.238 -7.275 -8.576 -6.617 -8.576 C -5.955 -8.576 -4.918 -8.238 -4.244 -7.628 C -3.893 -7.308 -2.871 -6.402 -3.477 -5.892 C -4.043 -5.421 -5.105 -4.871 -5.502 -4.027 C -6.008 -2.504 -4.48 -2.664 -2.525 -2.281 C -2.146 -2.209 -1.398 -2.086 -1.279 -2.588 C -1.17 -3.057 -2.525 -4.316 -1.838 -4.623 C -1.256 -4.888 .084 -3.174 .539 -2.535 C 1.602 -1.143 .955 0 0 0 " fill="#ffffff"/>
<path transform="matrix(1,0,0,-1,109.7012,131.6961)" d="M 0 0 C .473 -.023 .709 .801 .836 1.594 C .938 2.279 1.443 7.863 .717 7.861 C .283 7.854 -1.893 3.73 -2.301 2.48 C -2.428 2.086 -2.479 1.717 -2.367 1.438 C -2.102 .766 -.656 .039 0 0 " fill="#ffffff"/>
<path transform="matrix(1,0,0,-1,105.3809,126.7937)" d="M 0 0 C -.379 .209 -1.396 .223 -1.629 -.332 C -1.639 -.354 -1.643 -.375 -1.65 -.396 C -1.867 -1.094 -1.75 -2.498 -1.449 -3.145 C -1.281 -3.496 -.645 -3.65 -.352 -3.516 C .188 -3.266 .314 -2.385 .4 -1.82 C .504 -1.098 .742 -.404 0 0 " fill="#ffffff"/>
<path transform="matrix(1,0,0,-1,101.4492,126.166797)" d="M 0 0 C -.512 .063 -.795 -.098 -.949 -.371 C -1.166 -.771 -1.111 -1.422 -1.061 -2.027 C -1.004 -2.705 -.834 -4.053 .066 -3.635 C .928 -3.232 .84 -1.547 .836 -.717 C .836 -.219 .357 -.049 0 0 " fill="#ffffff"/>
<path transform="matrix(1,0,0,-1,112.3926,111.8855)" d="M 0 0 C .137 -.732 .68 -2.814 1.451 -1.385 C 1.994 -.383 3.871 5.227 3.828 5.887 C 3.838 5.74 -.383 5.533 -.428 5.537 C -.477 4.785 -.188 1.029 0 0 " fill="#ffffff"/>
<path transform="matrix(1,0,0,-1,109.2461,108.020298)" d="M 0 0 C -.178 .592 -.945 1.018 -1.428 1.201 C -1.914 1.391 -4.547 2.574 -5.969 3.242 C -7.471 3.947 -8.773 4.514 -9.598 4.514 C -10.508 4.514 -12.023 3.814 -13.738 2.998 C -15.023 2.385 -17.342 1.361 -17.756 1.201 C -18.178 1.041 -19.012 .592 -19.189 0 C -19.342 -.498 -18.977 -.467 -18.703 -.381 C -18.316 -.256 -17.805 .283 -17.346 .236 C -16.861 .184 -16.586 -.857 -16.092 -.285 C -15.645 .229 -15.207 .852 -14.578 .984 C -14.105 1.08 -13.76 .578 -13.371 .385 C -12.598 .006 -12.338 1.449 -11.479 1.602 C -10.705 1.734 -10.393 .809 -9.598 .809 C -8.795 .809 -8.482 1.734 -7.711 1.602 C -6.852 1.449 -6.553 -.047 -5.781 .336 C -5.385 .527 -5.084 1.08 -4.615 .984 C -3.98 .852 -3.545 .344 -3.098 -.166 C -2.602 -.738 -2.33 .184 -1.842 .236 C -1.379 .283 -.871 -.256 -.482 -.381 C -.211 -.467 .154 -.498 0 0 " fill="#ffffff"/>
<path transform="matrix(1,0,0,-1,102.2227,97.641399)" d="M 0 0 C -1.254 -1.254 -1.285 -2.797 -.484 -3.82 C .313 -4.842 5.398 -6.33 6.773 -6.539 C 8.988 -6.875 11.27 -6.865 13.516 -6.613 C 15.07 -6.441 16.664 -5.949 18.012 -5.16 C 18.695 -4.762 20.383 -3.623 20.242 -2.666 C 20.117 -1.822 19.322 -2.303 18.961 -2.549 C 18.291 -3 17.477 -3.35 16.73 -3.65 C 10.057 -5.813 7.43 -4.199 6.496 -3.793 C 6.152 -3.641 4.246 -2.754 4.643 -2.156 C 4.807 -1.904 5.395 -1.367 6.654 -1.873 C 7.941 -2.389 9.137 -2.416 10.521 -2.408 C 12.391 -2.393 12.518 -2.303 14.316 -1.781 C 16.162 -1.246 17.871 -.234 19.361 .967 C 19.773 1.307 20.598 2.129 20.563 2.703 C 20.496 3.668 19.146 2.795 18.857 2.592 C 18.295 2.205 17.225 1.227 14.926 .547 C 11.639 -.471 9.316 -.246 7.461 .422 C 6.738 .727 6.971 1.787 7.945 1.836 C 8.777 1.883 12.055 .662 16.949 3.982 C 17.885 4.703 20.156 6.051 19.705 7.404 C 19.486 8.066 18.572 7.656 17.533 6.554 C 16.904 5.852 15.156 4.477 13.84 3.85 C 10.826 2.309 8.271 3.441 7.92 3.662 C 7.572 3.885 7.957 4.35 8.668 4.574 C 9.498 4.869 11.832 5.008 13.52 6.008 C 17.064 8.095 16.871 9.929 16.404 10.234 C 15.811 10.626 14.926 9.324 14.518 9.041 C 9.045 5.268 9.703 8.695 9.736 9.605 C 9.744 9.812 9.926 10.615 10.115 12.876 C 10.168 13.554 9.758 14.397 9.088 13.546 C 8.559 12.771 8.391 11.906 7.574 9.519 C 5.836 4.668 1.26 1.256 0 0 " fill="#ffffff"/>
<path transform="matrix(1,0,0,-1,97.1035,97.770298)" d="M 0 0 C 1.256 -1.254 1.285 -2.795 .488 -3.818 C -.313 -4.838 -5.391 -6.324 -6.771 -6.535 C -8.984 -6.871 -11.268 -6.861 -13.512 -6.611 C -15.066 -6.439 -16.658 -5.945 -18.008 -5.158 C -18.691 -4.754 -20.383 -3.619 -20.238 -2.662 C -20.115 -1.822 -19.322 -2.301 -18.955 -2.547 C -18.289 -2.996 -17.475 -3.348 -16.727 -3.648 C -10.057 -5.811 -7.428 -4.195 -6.496 -3.787 C -6.148 -3.637 -4.24 -2.752 -4.639 -2.152 C -4.805 -1.906 -5.391 -1.365 -6.652 -1.869 C -7.938 -2.385 -9.131 -2.41 -10.518 -2.406 C -12.389 -2.391 -12.516 -2.303 -14.313 -1.779 C -16.156 -1.24 -17.867 -.232 -19.354 .973 C -19.773 1.309 -20.598 2.133 -20.559 2.705 C -20.492 3.676 -19.141 2.797 -18.854 2.594 C -18.293 2.215 -17.223 1.232 -14.918 .551 C -11.637 -.467 -9.313 -.242 -7.455 .426 C -6.734 .732 -6.963 1.791 -7.939 1.84 C -8.773 1.887 -12.049 .662 -16.941 3.982 C -17.883 4.709 -20.15 6.057 -19.703 7.406 C -19.48 8.066 -18.57 7.66 -17.531 6.558 C -16.898 5.854 -15.148 4.479 -13.84 3.855 C -10.822 2.313 -8.266 3.449 -7.918 3.666 C -7.568 3.887 -7.953 4.355 -8.662 4.576 C -9.492 4.869 -11.828 5.01 -13.52 6.012 C -17.061 8.099 -16.865 9.933 -16.398 10.236 C -15.805 10.628 -14.926 9.326 -14.512 9.046 C -9.041 5.27 -9.703 8.699 -9.732 9.609 C -9.74 9.816 -9.922 10.617 -10.111 12.878 C -10.166 13.56 -9.756 14.4 -9.088 13.55 C -8.553 12.777 -8.387 11.908 -7.57 9.521 C -5.834 4.672 -1.254 1.26 0 0 " fill="#ffffff"/>
<path transform="matrix(1,0,0,-1,132.4082,44.69899)" d="M 0 0 C 2.283 .609 3.424 -.105 5.701 .586 C 7.262 1.057 10.15 2.918 11.404 1.259 C 12.199 .207 12.652 -1.826 12.705 -3.086 C 12.781 -4.947 12.496 -7.314 12.104 -9.132 C 11.869 -10.208 10.016 -18.533 8.32 -16.007 C 7.803 -15.235 6.836 -11.023 4.863 -8.22 C 3.193 -5.844 .5 -4.848 -.135 -3.983 C -.797 -3.08 -1.521 -.406 0 0 M -3.16 -6.847 C -5.178 -6.782 -6.75 -6.001 -8.152 -4.614 C -9.803 -2.982 -11.789 -2.332 -14.057 -2.061 C -15.297 -1.916 -16.531 -2.111 -17.752 -1.781 C -19.229 -1.383 -20.182 -.759 -21.969 .237 C -23.43 1.056 -24.672 1.461 -26.143 1.538 C -27.791 1.631 -31.199 -.376 -32.713 -.376 C -34.227 -.376 -37.721 1.631 -39.369 1.538 C -40.842 1.461 -42.08 1.056 -43.547 .237 C -45.332 -.759 -46.281 -1.383 -47.76 -1.781 C -48.977 -2.111 -50.213 -1.916 -51.457 -2.061 C -53.725 -2.332 -55.713 -2.982 -57.361 -4.614 C -58.764 -6.001 -60.338 -6.782 -62.355 -6.847 C -63.098 -6.868 -64.914 -6.87 -63.869 -5.742 C -63.266 -5.088 -62.527 -4.529 -61.881 -3.902 C -60.84 -2.908 -60 -1.693 -58.826 -.842 C -57.551 .086 -56.051 .68 -54.527 1.063 C -52.75 1.512 -50.641 1.432 -48.885 2.004 C -46.924 2.646 -45.283 3.66 -43.408 4.52 C -40.309 5.936 -37.24 5.334 -34.074 4.545 C -33.795 4.476 -33.133 4.375 -32.766 4.375 C -32.4 4.375 -31.721 4.476 -31.439 4.545 C -28.271 5.334 -25.203 5.936 -22.102 4.52 C -20.225 3.66 -18.588 2.646 -16.625 2.004 C -14.873 1.432 -12.762 1.512 -10.984 1.063 C -9.463 .68 -7.967 .086 -6.684 -.842 C -5.512 -1.693 -4.672 -2.908 -3.633 -3.902 C -2.984 -4.529 -2.246 -5.088 -1.643 -5.742 C -.596 -6.87 -2.414 -6.868 -3.16 -6.847 M -19.162 -4.582 C -18.883 -4.83 -17.428 -6.033 -17.916 -6.735 C -18.15 -7.077 -18.443 -6.896 -18.717 -6.78 C -19.459 -6.461 -20.174 -6.139 -20.918 -5.832 C -23.434 -4.785 -26.279 -4.367 -28.859 -5.252 C -29.639 -5.52 -32.238 -6.79 -32.711 -6.79 C -33.182 -6.79 -35.777 -5.52 -36.559 -5.252 C -39.139 -4.367 -41.982 -4.785 -44.5 -5.832 C -45.246 -6.139 -45.961 -6.461 -46.699 -6.78 C -46.975 -6.896 -47.27 -7.077 -47.508 -6.735 C -47.988 -6.033 -46.537 -4.83 -46.254 -4.582 C -44.33 -2.878 -42.275 -2.069 -40.057 -1.575 C -39.363 -1.426 -38.648 -1.335 -37.926 -1.335 C -35.48 -1.335 -33.668 -2.71 -32.654 -2.71 C -31.637 -2.71 -30.068 -1.335 -27.49 -1.335 C -26.771 -1.335 -26.051 -1.426 -25.363 -1.575 C -23.141 -2.069 -21.09 -2.878 -19.162 -4.582 M -32.76 -10.179 C -32.439 -10.179 -30.777 -8.934 -27.564 -8.002 C -25.482 -7.442 -23.156 -7.347 -21.053 -7.792 C -20.045 -8.004 -19.064 -8.348 -18.125 -8.827 C -17.67 -9.058 -16.738 -9.501 -16.842 -10.276 C -16.902 -10.704 -17.488 -10.54 -17.723 -10.481 C -19.93 -9.919 -24.244 -9.622 -29.033 -12.53 C -29.938 -13.088 -32.477 -14.823 -32.76 -14.823 C -33.037 -14.823 -35.574 -13.088 -36.479 -12.53 C -40.477 -10.044 -45.578 -9.919 -47.785 -10.481 C -48.023 -10.54 -48.607 -10.704 -48.666 -10.276 C -48.773 -9.501 -47.844 -9.058 -47.387 -8.827 C -46.449 -8.348 -45.465 -8.004 -44.463 -7.792 C -42.354 -7.347 -40.029 -7.442 -37.945 -8.002 C -34.736 -8.934 -33.074 -10.179 -32.76 -10.179 M -12.988 -14.984 C -12.393 -15.675 -13.094 -15.687 -13.738 -15.593 C -14.068 -15.55 -15.438 -15.326 -15.914 -15.271 C -17.871 -15.059 -20.07 -15.296 -22.002 -15.811 C -24.344 -16.437 -28.117 -18.014 -29.793 -22.051 C -31.469 -26.084 -31.281 -31.597 -31.42 -34.627 C -31.561 -37.562 -31.98 -38.619 -32.76 -38.619 C -33.533 -38.619 -33.953 -37.562 -34.092 -34.627 C -34.234 -31.597 -34.045 -26.084 -35.719 -22.051 C -37.396 -18.014 -41.164 -16.437 -43.508 -15.811 C -45.438 -15.296 -47.645 -15.059 -49.6 -15.271 C -50.072 -15.326 -51.443 -15.55 -51.771 -15.593 C -52.418 -15.687 -53.121 -15.675 -52.523 -14.984 C -51.703 -14.035 -50.23 -13.486 -49.066 -13.261 C -47.258 -12.911 -45.279 -12.964 -43.475 -13.255 C -41.848 -13.517 -40.242 -14.035 -38.742 -14.743 C -37.355 -15.402 -33.271 -18.099 -32.795 -18.099 C -32.32 -18.099 -28.16 -15.402 -26.771 -14.743 C -25.27 -14.035 -23.666 -13.517 -22.035 -13.255 C -20.227 -12.964 -18.26 -12.911 -16.449 -13.261 C -15.283 -13.486 -13.807 -14.035 -12.988 -14.984 M -8.953 -19.854 C -8.457 -20.059 -4.998 -21.488 -5.713 -22.43 C -6 -22.806 -7.797 -22.203 -8.133 -22.133 C -9.186 -21.904 -10.23 -21.645 -11.287 -21.438 C -13.064 -21.095 -15.176 -20.772 -16.994 -20.837 C -18.557 -20.894 -20.324 -21.126 -21.73 -21.859 C -25.996 -24.094 -26.684 -29.477 -27.5 -33.735 C -27.645 -34.47 -27.742 -35.209 -27.99 -35.922 C -28.131 -36.334 -28.928 -37.417 -29.451 -36.678 C -29.842 -35.929 -29.707 -34.5 -29.639 -33.574 C -29.459 -31.123 -28.957 -25.762 -27.137 -22.67 C -25.318 -19.576 -21.281 -17.833 -14.963 -18.321 C -12.965 -18.581 -10.818 -19.081 -8.953 -19.854 M -35.648 -33.063 C -35.541 -33.986 -35.344 -35.408 -35.703 -36.17 C -36.197 -36.935 -37.037 -35.885 -37.195 -35.48 C -37.467 -34.777 -37.604 -34.043 -37.777 -33.313 C -38.773 -29.097 -39.686 -23.744 -44.041 -21.691 C -45.479 -21.017 -47.254 -20.858 -48.822 -20.872 C -50.635 -20.88 -52.73 -21.294 -54.496 -21.713 C -55.539 -21.96 -56.57 -22.265 -57.613 -22.536 C -57.951 -22.623 -59.723 -23.301 -60.025 -22.939 C -60.773 -22.024 -57.379 -20.45 -56.896 -20.228 C -55.059 -19.374 -52.939 -18.788 -50.949 -18.444 C -44.658 -17.688 -40.551 -19.26 -38.605 -22.274 C -36.66 -25.291 -35.928 -30.622 -35.648 -33.063 M -66.502 -4.233 C -67.135 -5.099 -69.83 -6.098 -71.498 -8.472 C -73.477 -11.276 -74.439 -15.487 -74.958 -16.258 C -76.654 -18.784 -78.506 -10.46 -78.738 -9.382 C -79.133 -7.566 -79.418 -5.701 -79.34 -3.842 C -79.288 -2.58 -78.833 -.043 -78.041 1.004 C -76.785 2.666 -73.895 .807 -72.338 .334 C -70.061 -.355 -68.92 .359 -66.637 -.252 C -65.115 -.658 -65.836 -3.33 -66.502 -4.233 M 19.393 -39.04 C 19.795 -39.298 20.217 -39.527 20.65 -39.722 C 21.098 -39.921 21.197 -39.689 21.223 -39.249 C 21.316 -37.528 20.479 -35.543 19.742 -34.021 C 18.594 -31.646 16.932 -29.601 15.238 -27.59 C 15.012 -27.321 13.244 -25.538 14.225 -25.434 C 14.631 -25.391 15.141 -25.643 15.516 -25.797 C 15.963 -25.976 17.568 -26.359 17.945 -26.263 C 18.969 -25.992 16.139 -21.867 15.887 -21.3 C 15.203 -19.753 15.193 -17.447 15.447 -15.806 C 15.717 -14.083 16.176 -12.396 16.475 -10.683 C 16.984 -7.849 17.42 -4.221 16.922 -1.355 C 16.643 .248 15.963 1.92 15.047 3.271 C 14.453 4.152 13.176 5.027 12.08 5.099 C 10.809 5.184 9.969 4.93 8.723 4.732 C 3.668 3.936 -1.801 3.156 -6.891 3.769 C -9.559 4.09 -12.211 4.682 -14.764 5.487 C -15.547 5.734 -16.32 5.992 -17.096 6.259 C -18.775 6.836 -20.355 7.653 -22.053 8.174 C -23.869 8.73 -25.865 9.07 -27.76 8.742 C -29.512 8.441 -31.314 7.589 -32.76 7.589 C -34.191 7.589 -36.002 8.441 -37.752 8.742 C -39.645 9.07 -41.643 8.73 -43.463 8.174 C -45.158 7.653 -46.74 6.836 -48.414 6.259 C -49.191 5.992 -49.967 5.734 -50.748 5.487 C -53.303 4.682 -55.953 4.09 -58.623 3.769 C -63.715 3.156 -69.178 3.936 -74.234 4.732 C -75.482 4.93 -76.323 5.184 -77.592 5.099 C -78.687 5.027 -79.965 4.152 -80.562 3.271 C -81.475 1.92 -82.16 -.257 -82.436 -1.857 C -82.932 -4.725 -82.497 -7.849 -81.988 -10.683 C -81.686 -12.396 -81.23 -14.083 -80.962 -15.806 C -80.707 -17.447 -80.717 -19.753 -81.397 -21.3 C -81.654 -21.867 -84.483 -25.992 -83.457 -26.263 C -83.081 -26.359 -81.475 -25.976 -81.025 -25.797 C -80.654 -25.643 -80.144 -25.391 -79.736 -25.434 C -78.756 -25.538 -80.524 -27.321 -80.75 -27.59 C -82.441 -29.601 -84.105 -31.646 -85.255 -34.021 C -85.991 -35.543 -86.828 -37.528 -86.733 -39.249 C -86.708 -39.689 -86.609 -39.921 -86.167 -39.722 C -85.729 -39.527 -85.305 -39.298 -84.906 -39.04 C -84.906 -39.04 -83.523 -38.14 -83.252 -38.595 C -82.916 -39.149 -83.615 -39.894 -83.912 -40.302 C -85.618 -42.66 -86.16 -45.777 -86.369 -48.601 C -86.434 -49.438 -86.648 -52.417 -86.258 -52.644 C -85.787 -52.919 -85.188 -52.142 -84.941 -51.845 C -84.503 -51.315 -84.105 -50.767 -83.566 -50.323 C -83.155 -49.995 -82.765 -52.173 -83.054 -52.94 C -83.63 -54.47 -83.993 -56.431 -84.051 -58.056 C -84.107 -59.823 -83.806 -61.612 -83.259 -63.272 C -83.155 -63.585 -82.82 -64.435 -82.394 -64.333 C -81.929 -64.222 -80.134 -60.757 -79.574 -61.075 C -79.009 -61.39 -79.766 -63.454 -79.253 -67.062 C -78.855 -69.931 -77.915 -72.731 -76.457 -75.241 C -76.338 -75.442 -75.988 -76.116 -75.678 -76.116 C -75.161 -76.112 -75.141 -74.954 -75.111 -74.632 C -75.04 -73.864 -74.916 -73.017 -74.555 -72.325 C -74.28 -71.802 -73.816 -71.458 -73.477 -72.118 C -73.066 -72.921 -73.225 -74.093 -71.975 -77.429 C -71.721 -78.106 -71.363 -78.743 -71.037 -79.39 C -70.721 -80.007 -70.383 -80.624 -70 -81.212 C -69.236 -82.382 -68.191 -83.729 -66.828 -84.235 C -66.51 -84.353 -66.385 -84.206 -66.344 -83.989 C -66.301 -83.751 -66.582 -80.868 -66.137 -79.962 C -65.648 -79.058 -63.631 -81.735 -62.795 -82.89 C -61.795 -84.261 -60.59 -85.479 -59.217 -86.478 C -58.293 -87.149 -57.283 -87.935 -56.189 -88.308 C -54.775 -88.78 -55.195 -87.579 -55.357 -86.653 C -55.568 -85.442 -56.328 -81.267 -56.613 -80.081 C -57.109 -78.021 -57.852 -77.952 -59.686 -76.829 C -60.387 -76.396 -61.115 -75.454 -61.279 -74.636 C -61.516 -73.483 -61.311 -72.284 -61.668 -71.151 C -61.916 -70.362 -62.795 -69.653 -63.555 -69.399 C -65.707 -68.673 -67.982 -69.534 -70.154 -68.929 C -71.742 -68.491 -72.682 -67.794 -73.27 -66.237 C -73.789 -64.851 -73.832 -63.251 -73.676 -61.794 C -73.559 -60.681 -73.742 -59.466 -74.426 -58.548 C -75.062 -57.692 -76.107 -57.356 -76.834 -56.604 C -77.383 -56.026 -77.863 -55.323 -78.096 -54.562 C -78.674 -52.644 -77.4 -50.925 -77.063 -49.103 C -76.703 -47.165 -78.215 -45.292 -79.232 -43.765 C -81.271 -40.714 -80.018 -37.483 -78.163 -34.752 C -77.226 -33.377 -76.137 -32.012 -75.715 -30.375 C -75.254 -28.586 -76.115 -26.941 -76.249 -25.176 C -76.395 -23.197 -75.973 -22.042 -74.271 -20.998 C -73.221 -20.355 -72.252 -19.763 -71.475 -18.784 C -70.061 -16.997 -69.855 -14.478 -68.75 -12.499 C -68.365 -11.796 -67.875 -10.954 -67.256 -10.428 C -66.033 -9.39 -64.229 -9.046 -62.682 -8.87 C -61.213 -8.71 -59.727 -8.506 -58.332 -7.995 C -57.1 -7.544 -53.334 -5.064 -52.127 -4.698 C -50.928 -4.33 -47.826 -4.402 -48.963 -6.207 C -49.32 -6.775 -53.971 -9.319 -55.064 -10.356 C -56.043 -11.28 -57.039 -11.909 -58.357 -12.231 C -59.529 -12.515 -60.852 -12.321 -62.012 -12.576 C -62.924 -12.772 -63.992 -13.39 -64.563 -14.12 C -65.781 -15.655 -66.012 -17.397 -66.842 -19.102 C -67.557 -20.579 -68.496 -21.895 -69.908 -22.764 C -70.441 -23.094 -70.994 -23.42 -71.371 -23.938 C -72.029 -24.832 -71.617 -25.941 -71.359 -26.896 C -70.898 -28.577 -71.119 -31.289 -71.701 -32.912 C -72.152 -34.162 -72.691 -35.009 -73.547 -36.008 C -74.32 -36.909 -75.104 -37.851 -75.495 -38.987 C -76.017 -40.482 -75.684 -42.181 -74.82 -43.486 C -73.967 -44.757 -72.809 -45.923 -72.561 -47.499 C -72.332 -48.964 -73.088 -50.122 -73.389 -51.501 C -73.545 -52.208 -73.523 -53.155 -73.18 -53.804 C -72.885 -54.364 -72.393 -54.618 -71.883 -54.94 C -71.373 -55.269 -70.84 -55.595 -70.535 -56.138 C -69.939 -57.218 -69.721 -58.563 -69.721 -59.788 C -69.727 -60.903 -69.635 -62.13 -68.787 -62.944 C -67.891 -63.8 -66.73 -64.095 -65.51 -63.946 C -64.025 -63.761 -62.787 -63.353 -61.416 -64.122 C -61.051 -64.329 -60.604 -64.755 -60.383 -65.118 C -60.201 -65.417 -60.059 -65.743 -59.861 -66.03 C -59.449 -66.657 -58.539 -67.245 -57.789 -66.907 C -56.779 -66.546 -56.941 -64.519 -57.938 -63.038 C -58.938 -61.554 -60.256 -60.292 -61.947 -60.288 C -62.727 -60.288 -63.51 -60.536 -64.291 -60.483 C -65.721 -60.388 -66.771 -59.433 -66.715 -57.972 C -66.68 -57.089 -66.785 -55.991 -67.273 -55.224 C -67.842 -54.341 -68.744 -53.921 -69.23 -52.956 C -69.699 -52.034 -69.447 -51.12 -69.152 -50.185 C -68.514 -48.112 -68.686 -45.447 -69.984 -43.648 C -70.441 -43.003 -70.982 -42.421 -71.4 -41.748 C -72.412 -40.117 -71.436 -38.312 -70.336 -37.028 C -69.578 -36.153 -69.018 -35.038 -68.441 -33.988 C -67.682 -32.605 -67.457 -30.559 -67.648 -29.013 C -67.813 -27.694 -68.621 -26.148 -67.988 -24.896 C -67.58 -24.079 -67.105 -23.953 -65.922 -22.776 C -64.75 -21.598 -63.348 -16.407 -62.291 -15.507 C -61.445 -14.786 -60.926 -14.786 -58.875 -14.569 C -57.465 -14.423 -57.494 -14.167 -55.127 -12.942 C -52.766 -11.716 -51.012 -11.522 -50.65 -11.926 C -50.361 -12.259 -50.752 -12.789 -50.959 -13.028 C -51.322 -13.442 -54.238 -16.001 -54.852 -16.415 C -55.559 -16.896 -56.566 -18.532 -58.102 -19.018 C -59.635 -19.499 -61.01 -21.175 -61.467 -22.084 C -61.918 -22.994 -62.682 -25.605 -61.51 -25.474 C -60.766 -25.355 -55.52 -23.504 -53.555 -23.316 C -51.83 -23.15 -50.029 -23.057 -48.316 -23.242 C -46.301 -23.461 -44.434 -24.242 -43.154 -25.865 C -42.461 -26.744 -42.113 -27.904 -41.865 -28.982 C -41.301 -31.384 -41.215 -33.885 -40.916 -36.325 C -40.791 -37.321 -40.871 -38.562 -39.992 -39.249 C -39.404 -39.703 -36.793 -40.705 -32.76 -40.705 C -28.719 -40.705 -26.104 -39.703 -25.52 -39.249 C -24.641 -38.562 -24.717 -37.321 -24.598 -36.325 C -24.297 -33.885 -24.211 -31.384 -23.645 -28.982 C -23.398 -27.904 -23.055 -26.744 -22.359 -25.865 C -21.08 -24.242 -19.209 -23.461 -17.191 -23.242 C -15.482 -23.057 -13.684 -23.15 -11.959 -23.316 C -9.994 -23.504 -4.465 -25.355 -3.721 -25.474 C -2.545 -25.605 -3.453 -24.003 -3.908 -23.09 C -4.359 -22.182 -5.592 -19.499 -7.127 -19.018 C -8.662 -18.532 -9.514 -16.896 -10.221 -16.415 C -10.83 -16.001 -14.189 -13.442 -14.551 -13.028 C -14.762 -12.789 -15.154 -12.259 -14.859 -11.926 C -14.502 -11.522 -12.75 -11.716 -10.383 -12.942 C -8.02 -14.167 -8.051 -14.423 -6.635 -14.569 C -4.584 -14.786 -4.068 -14.786 -3.215 -15.507 C -2.162 -16.407 -.764 -21.598 .412 -22.776 C 1.59 -23.953 2.064 -24.079 2.477 -24.896 C 3.107 -26.148 2.299 -27.694 2.135 -29.013 C 1.945 -30.559 2.17 -32.605 2.926 -33.988 C 3.502 -35.038 4.066 -36.153 4.82 -37.028 C 5.922 -38.312 6.9 -40.117 5.887 -41.748 C 5.471 -42.421 4.93 -43.003 4.471 -43.648 C 3.176 -45.447 3 -48.112 3.646 -50.185 C 3.936 -51.12 4.188 -52.034 3.721 -52.956 C 3.232 -53.921 2.328 -54.341 1.762 -55.224 C 1.273 -55.991 1.168 -57.089 1.201 -57.972 C 1.258 -59.433 .205 -60.388 -1.221 -60.483 C -2.004 -60.536 -2.785 -60.288 -3.566 -60.288 C -5.262 -60.292 -6.576 -61.554 -7.572 -63.038 C -8.57 -64.519 -8.727 -66.546 -7.721 -66.907 C -6.971 -67.245 -6.061 -66.657 -5.648 -66.03 C -5.455 -65.743 -5.313 -65.417 -5.127 -65.118 C -4.908 -64.755 -4.463 -64.329 -4.098 -64.122 C -2.725 -63.353 -1.484 -63.761 0 -63.946 C 1.219 -64.095 2.377 -63.8 3.275 -62.944 C 4.121 -62.13 4.215 -60.903 4.213 -59.788 C 4.211 -58.563 4.424 -57.218 5.023 -56.138 C 5.33 -55.595 5.863 -55.269 6.371 -54.94 C 6.881 -54.618 7.377 -54.364 7.668 -53.804 C 8.01 -53.155 8.027 -52.208 7.879 -51.501 C 7.578 -50.122 6.822 -48.964 7.051 -47.499 C 7.297 -45.923 8.455 -44.757 9.307 -43.486 C 10.172 -42.181 10.502 -40.482 9.986 -38.987 C 9.592 -37.851 8.809 -36.909 8.037 -36.008 C 7.18 -35.009 6.641 -34.162 6.189 -32.912 C 5.604 -31.289 5.385 -28.577 5.846 -26.896 C 6.104 -25.941 6.516 -24.832 5.859 -23.938 C 5.482 -23.42 4.93 -23.094 4.393 -22.764 C 2.986 -21.895 2.043 -20.579 1.328 -19.102 C .5 -17.397 .266 -15.655 -.949 -14.12 C -1.521 -13.39 -2.594 -12.772 -3.496 -12.576 C -4.658 -12.321 -5.984 -12.515 -7.156 -12.231 C -8.473 -11.909 -9.465 -11.28 -10.449 -10.356 C -11.543 -9.319 -15.463 -6.775 -15.816 -6.207 C -16.953 -4.402 -14.322 -4.33 -13.121 -4.698 C -11.916 -5.064 -8.414 -7.544 -7.182 -7.995 C -5.787 -8.506 -4.303 -8.71 -2.832 -8.87 C -1.285 -9.046 .523 -9.39 1.742 -10.428 C 2.361 -10.954 2.85 -11.796 3.242 -12.499 C 4.342 -14.478 4.545 -16.997 5.961 -18.784 C 6.74 -19.763 7.709 -20.355 8.758 -20.998 C 10.461 -22.042 10.887 -23.197 10.736 -25.176 C 10.607 -26.941 9.742 -28.586 10.201 -30.375 C 10.623 -32.012 11.715 -33.377 12.648 -34.752 C 14.508 -37.483 15.76 -40.714 13.723 -43.765 C 12.701 -45.292 11.189 -47.165 11.549 -49.103 C 11.889 -50.925 13.164 -52.644 12.586 -54.562 C 12.354 -55.323 11.873 -56.026 11.32 -56.604 C 10.598 -57.356 9.549 -57.692 8.914 -58.548 C 8.23 -59.466 8.049 -60.681 8.168 -61.794 C 8.32 -63.251 8.277 -64.851 7.756 -66.237 C 7.172 -67.794 6.229 -68.491 4.641 -68.929 C 2.473 -69.534 .195 -68.673 -1.959 -69.399 C -2.719 -69.653 -3.596 -70.362 -3.846 -71.151 C -4.203 -72.284 -4.002 -73.483 -4.232 -74.636 C -4.398 -75.454 -5.127 -76.396 -5.828 -76.829 C -7.664 -77.952 -8.441 -78.021 -8.932 -80.081 C -9.219 -81.267 -9.977 -85.442 -10.193 -86.653 C -10.355 -87.579 -10.768 -88.78 -9.359 -88.308 C -8.266 -87.935 -7.258 -87.149 -6.33 -86.478 C -4.955 -85.479 -3.752 -84.261 -2.756 -82.89 C -1.918 -81.735 .137 -79.058 .623 -79.962 C 1.068 -80.868 .783 -83.751 .832 -83.989 C .875 -84.206 .996 -84.353 1.314 -84.235 C 2.68 -83.729 3.723 -82.382 4.49 -81.212 C 4.873 -80.624 5.203 -80.007 5.523 -79.39 C 5.852 -78.743 6.207 -78.106 6.461 -77.429 C 7.711 -74.093 7.551 -72.921 7.963 -72.118 C 8.303 -71.458 8.768 -71.802 9.043 -72.325 C 9.402 -73.017 9.525 -73.864 9.596 -74.632 C 9.627 -74.954 9.648 -76.112 10.162 -76.116 C 10.479 -76.116 10.824 -75.442 10.943 -75.241 C 12.402 -72.731 13.348 -69.931 13.742 -67.062 C 14.252 -63.454 13.502 -61.39 14.059 -61.075 C 14.621 -60.757 16.416 -64.222 16.883 -64.333 C 17.311 -64.435 17.645 -63.585 17.748 -63.272 C 18.293 -61.612 18.596 -59.823 18.539 -58.056 C 18.48 -56.431 18.115 -54.47 17.541 -52.94 C 17.25 -52.173 17.645 -49.995 18.057 -50.323 C 18.594 -50.767 18.99 -51.315 19.434 -51.845 C 19.672 -52.142 20.277 -52.919 20.748 -52.644 C 21.137 -52.417 20.92 -49.438 20.855 -48.601 C 20.646 -45.777 20.105 -42.66 18.398 -40.302 C 18.102 -39.894 17.406 -39.149 17.738 -38.595 C 18.01 -38.14 19.393 -39.04 19.393 -39.04 " fill="#ffffff"/>
<path transform="matrix(1,0,0,-1,108.6875,137.284)" d="M 0 0 C -.184 -.629 -1.15 -.824 -1.568 -.811 C -2.738 -.768 -4.652 -.279 -9.02 -.279 C -13.385 -.279 -15.332 -.768 -16.5 -.811 C -16.922 -.824 -17.74 -.563 -17.924 .063 C -18.254 1.203 -15.254 3.525 -8.871 3.525 C -2.479 3.525 .328 1.139 0 0 M 13.398 21.051 C 12.813 21.561 11.863 21.184 11.314 20.799 C 8.168 18.576 6.789 7.49 5.059 2.791 C 4.623 1.594 3.463 -1.32 3.08 -1.32 C 2.703 -1.32 2.998 1.279 2.922 1.969 C 2.852 2.57 2.383 2.85 1.854 3.029 C 1.854 3.029 -2.984 5.6 -8.934 5.6 C -14.879 5.6 -19.924 3.029 -19.924 3.029 C -20.451 2.85 -20.924 2.57 -20.992 1.969 C -21.068 1.279 -20.785 -1.32 -21.289 -1.32 C -21.791 -1.32 -22.777 1.721 -23.217 2.92 C -24.943 7.619 -26.438 18.576 -29.582 20.799 C -30.131 21.184 -31.076 21.561 -31.662 21.051 C -32.469 20.342 -31.785 19.002 -31.551 18.201 C -31.307 17.377 -31.082 16.551 -30.863 15.717 C -30.525 14.4 -28.939 8.482 -27.74 3.814 C -25.445 -4.742 -21.455 -7.725 -20.545 -7.926 C -19.941 -8.057 -20.246 -3.186 -19.627 -3.018 C -19 -2.844 -15.781 -9.346 -14.635 -9.217 C -13.959 -9.08 -14.4 -4.09 -13.859 -3.754 C -13.322 -3.422 -9.902 -9.049 -9.184 -9.049 C -8.465 -9.049 -4.855 -3.422 -4.318 -3.754 C -3.777 -4.09 -4.111 -9.08 -3.439 -9.217 C -2.291 -9.346 .826 -2.844 1.447 -3.018 C 2.066 -3.186 1.865 -8.057 2.477 -7.926 C 3.385 -7.725 7.375 -4.742 9.672 3.814 C 10.867 8.482 12.26 14.4 12.598 15.717 C 12.813 16.551 13.043 17.377 13.287 18.201 C 13.521 19.002 14.203 20.342 13.398 21.051 " fill="#ffffff"/>
<path transform="matrix(1,0,0,-1,107.6816,116.686298)" d="M 0 0 C -.096 1.061 -.621 2.146 -1.629 2.613 C -2.322 2.932 -3.35 3.086 -4.082 2.854 C -4.854 2.611 -5.025 1.891 -5.301 1.219 C -5.805 -.025 -7.395 -3.615 -8.111 -3.615 C -8.834 -3.615 -10.297 -.025 -10.801 1.219 C -11.076 1.891 -11.246 2.611 -12.018 2.854 C -12.754 3.086 -13.779 2.932 -14.471 2.613 C -15.479 2.146 -16.002 1.061 -16.102 0 C -16.248 -1.627 -14.988 -6.975 -14.184 -7.74 C -13.557 -8.332 -12.893 -8.479 -12.051 -8.453 C -10.721 -8.406 -9.992 -8.213 -8.053 -8.213 C -6.105 -8.213 -5.381 -8.406 -4.051 -8.453 C -3.209 -8.479 -2.545 -8.332 -1.918 -7.74 C -1.109 -6.975 .148 -1.627 0 0 " fill="#ffffff"/>
<path transform="matrix(1,0,0,-1,107.6641,109.147197)" d="M 0 0 C -.506 -.58 -.703 -2.363 -.598 -2.842 C -.418 -3.623 .135 -3.578 .625 -3.578 C 1.223 -3.578 1.07 -2.254 1.021 -1.789 C .967 -1.24 .922 -.607 .666 -.146 C .486 .176 .246 .24 0 0 " fill="#ffffff"/>
<path transform="matrix(1,0,0,-1,104.6055,108.5066)" d="M 0 0 C -.795 0 -.875 -2.221 -.785 -2.857 C -.715 -3.338 -.346 -3.492 .041 -3.541 C .334 -3.578 .613 -3.572 .879 -3.379 C 1.156 -3.184 1.055 -.998 .787 -.533 C .629 -.26 .313 0 0 0 " fill="#ffffff"/>
<path transform="matrix(1,0,0,-1,101.5625,107.8601)" d="M 0 0 C -.205 .051 -.381 .008 -.531 -.104 C -.758 -.264 -.904 -.551 -1.004 -.842 C -1.236 -1.516 -1.242 -2.607 -1.037 -3.275 C -.871 -3.844 -.029 -3.754 .373 -3.725 C .654 -3.707 .701 -3.65 .777 -3.316 C .916 -2.773 .904 -2.063 .844 -1.498 C .777 -.912 .525 -.135 0 0 " fill="#ffffff"/>
<path transform="matrix(1,0,0,-1,128.582,82.2605)" d="M 0 0 C -.369 -1.068 -1.076 -2.129 -2.098 -2.657 C -3.301 -3.276 -4.852 -3.149 -6.119 -2.797 C -6.422 -2.715 -8.547 -1.868 -7.564 -1.411 C -7.445 -1.356 -7.17 -1.336 -7.035 -1.322 C -6.16 -1.218 -5.359 -1.198 -4.525 -.941 C -3.139 -.516 -2.109 .232 -1.199 1.354 C -.971 1.636 -.596 2.519 -.117 2.208 C .391 1.875 .156 .459 0 0 M -2.582 3.678 C -3.305 2.362 -4.434 1.437 -5.857 .926 C -6.967 .529 -8.16 .359 -9.338 .446 C -10.451 .529 -11.871 .913 -12.789 1.548 C -12.967 1.665 -13.402 1.929 -13.43 2.153 C -13.438 2.208 -13.43 2.251 -13.414 2.293 C -13.318 2.517 -12.926 2.593 -12.727 2.603 C -12.041 2.638 -11.35 2.553 -10.656 2.587 C -8.686 2.685 -6.453 3.122 -4.773 4.479 C -4.242 4.914 -3.824 5.416 -3.432 5.972 C -3.246 6.235 -2.609 7.147 -2.234 6.885 C -1.646 6.481 -2.193 4.38 -2.582 3.678 M 1.102 -6.198 C .893 -7.385 .846 -7.016 .576 -8.196 C .242 -9.623 -.137 -11.863 -.713 -13.209 C -.949 -13.758 -1.225 -14.293 -1.545 -14.799 C -2.098 -15.66 -2.631 -16.877 -1.916 -17.832 C -1.43 -18.477 -.592 -18.346 .084 -18.082 C 1.363 -17.582 2.873 -16.285 3.314 -14.938 C 3.928 -13.086 3.105 -10.078 3.105 -8.965 C 3.105 -7.852 3.604 -6.19 3.914 -5.504 C 4.23 -4.827 4.934 -3.586 5.148 -3.006 C 5.365 -2.434 5.379 -1.801 5.154 -1.23 C 4.879 -.531 4.221 -.147 3.789 .446 C 2.5 2.227 2.133 7.479 1.918 7.308 C 1.709 7.108 1.367 5.489 .904 4.864 C .678 4.563 .164 4.052 -.244 4.231 C -.775 4.464 -.604 6.326 -.635 6.771 C -.744 8.374 -.707 11.007 -2.854 11.149 C -3.594 11.194 -4.119 10.327 -4.441 9.775 C -5.133 8.608 -5.857 7.437 -6.961 6.608 C -7.965 5.853 -9.293 5.376 -10.66 5.169 C -12.301 4.969 -13.646 5.05 -15.365 5.362 C -17.074 5.679 -17.156 4.386 -17.262 3.624 C -17.395 2.664 -17.717 1.074 -16.498 .775 C -16.092 .678 -15.646 .674 -15.258 .53 C -14.424 .224 -14.281 -3.028 -13.512 -3.319 C -12.125 -3.846 -9.857 -2.315 -9.316 -2.647 C -8.811 -2.969 -7.928 -4.413 -7.434 -4.749 C -6.48 -5.389 -5.463 -5.127 -4.834 -5.418 C -4.377 -5.631 -4.336 -6.016 -4.035 -6.405 C -3.246 -7.411 -3.377 -8.866 -2.379 -7.454 C -1.842 -6.696 -1.172 -5.752 -.596 -4.959 C .596 -3.284 1.199 -5.661 1.102 -6.198 " fill="#ffffff"/>
<path transform="matrix(1,0,0,-1,116.0156,74.7986)" d="M 0 0 C -1.014 -.033 -3.539 .165 -3.27 1.765 C -2.873 4.096 -.367 4.795 1.4 4.478 C 2.482 4.285 5.949 4.015 4.84 2.51 C 3.904 1.243 1.506 .053 0 0 " fill="#ffffff"/>
<path transform="matrix(1,0,0,-1,83.2324,74.7986)" d="M 0 0 C 1.012 -.033 3.541 .165 3.27 1.765 C 2.875 4.096 .369 4.795 -1.398 4.478 C -2.479 4.285 -5.953 4.015 -4.84 2.51 C -3.902 1.243 -1.506 .053 0 0 " fill="#ffffff"/>
</g>
</g>
</g>
</svg>
