<?xml version="1.0" encoding="UTF-8" standalone="no"?>
<!DOCTYPE svg PUBLIC "-//W3C//DTD SVG 1.1//EN" "http://www.w3.org/Graphics/SVG/1.1/DTD/svg11.dtd">
<svg xmlns="http://www.w3.org/2000/svg" xmlns:xlink="http://www.w3.org/1999/xlink" version="1.1" width="382.481pt" height="181.491pt" viewBox="0 0 382.481 181.491">
<g enable-background="new">
<g id="Layer-1" data-name="Layer 1">
<clipPath id="cp3">
<path transform="matrix(1,0,0,-1,0,181.491)" d="M 0 181.491 L 382.481 181.491 L 382.481 0 L 0 0 Z "/>
</clipPath>
<g clip-path="url(#cp3)">
<path transform="matrix(1,0,0,-1,147.3877,92.1883)" d="M 0 0 C -.088 1.147 -.232 2.522 -.549 3.967 C -.979 5.815 -.123 7.19 -.046 7.338 C .181 7.787 .332 8.326 .367 8.956 C .5 11.364 -.511 13.794 -1.408 15.644 C -1.775 16.406 -2.183 17.13 -2.628 17.828 C -3.513 19.149 -2.834 22.293 -2.783 22.463 C -2.363 24.075 -3.132 24.492 -4.959 27.802 C -5.078 28.018 -5.178 28.188 -5.232 28.297 C -5.563 29.082 -5.649 30.697 -5.43 32.081 C -5.301 32.939 -5.107 33.814 -4.907 34.734 C -4.739 35.507 -4.564 36.308 -4.416 37.131 C -3.848 40.318 -3.402 44.218 -3.971 47.486 C -4.316 49.502 -5.152 51.558 -6.314 53.275 C -7.264 54.678 -9.307 56.763 -11.557 56.913 C -11.789 56.931 -12.024 56.936 -12.254 56.936 C -13.248 56.936 -14.045 56.791 -14.807 56.65 C -15.049 56.61 -15.301 56.56 -15.572 56.518 C -18.762 56.016 -21.898 54.752 -24.895 54.752 C -26.799 54.752 -28.629 54.859 -30.35 55.067 C -32.764 55.356 -35.227 55.895 -37.674 56.665 C -38.368 56.883 -39.107 57.129 -39.93 57.414 C -40.592 57.64 -41.26 57.919 -41.971 58.216 C -42.92 58.614 -43.9 59.026 -44.979 59.354 C -46.799 59.912 -48.445 60.185 -50.012 60.185 C -50.715 60.185 -51.409 60.127 -52.064 60.014 C -52.978 59.854 -53.843 59.594 -54.607 59.365 C -55.331 59.148 -56.174 58.952 -56.551 58.952 C -56.919 58.952 -57.762 59.148 -58.484 59.365 C -59.253 59.594 -60.121 59.854 -61.028 60.014 C -61.687 60.127 -62.377 60.183 -63.088 60.183 C -64.65 60.183 -66.296 59.912 -68.117 59.354 C -69.195 59.026 -70.176 58.614 -71.125 58.216 C -71.836 57.919 -72.5 57.64 -73.159 57.414 C -73.985 57.129 -74.728 56.883 -75.422 56.665 C -77.871 55.892 -80.331 55.356 -82.746 55.065 C -84.463 54.857 -86.303 54.752 -88.201 54.752 C -91.197 54.752 -94.328 56.016 -97.518 56.518 C -97.791 56.56 -98.04 56.61 -98.285 56.65 C -99.054 56.791 -99.841 56.936 -100.842 56.936 C -101.071 56.936 -101.307 56.931 -101.539 56.913 C -103.785 56.763 -105.832 54.678 -106.781 53.275 C -107.943 51.558 -108.776 49.5 -109.125 47.481 C -109.689 44.218 -109.241 40.318 -108.68 37.129 C -108.531 36.308 -108.356 35.507 -108.188 34.732 C -107.988 33.814 -107.795 32.939 -107.662 32.081 C -107.443 30.697 -107.537 29.082 -107.866 28.297 C -107.921 28.188 -108.015 28.018 -108.137 27.802 C -109.964 24.492 -110.732 24.075 -110.31 22.461 C -110.264 22.293 -109.58 20.536 -110.471 19.212 C -110.91 18.512 -111.32 16.406 -111.688 15.644 C -112.585 13.794 -113.596 11.364 -113.463 8.956 C -113.424 8.321 -113.275 7.787 -113.05 7.338 C -112.973 7.187 -112.117 5.815 -112.547 3.967 C -112.859 2.522 -113.005 1.147 -113.089 0 C -113.153 -.793 -113.228 -3.056 -113.234 -3.243 C -113.263 -4.022 -113.173 -5.297 -112.259 -6.262 C -112.172 -6.348 -110.791 -7.396 -110.791 -10.123 C -110.791 -11.986 -110.471 -13.9 -109.848 -15.813 C -109.293 -17.489 -108.393 -18.279 -107.588 -18.644 C -106.188 -19.33 -105.774 -20.303 -105.555 -21.307 C -104.986 -23.787 -104.044 -26.189 -102.791 -28.342 L -102.772 -28.379 C -102.491 -28.873 -101.713 -30.244 -100.206 -30.609 C -98.989 -30.874 -97.763 -31.631 -97.232 -32.766 C -96.969 -33.271 -96.639 -33.86 -96.258 -34.439 C -95.345 -35.842 -93.866 -37.804 -91.626 -38.63 C -91.371 -38.729 -90.729 -38.828 -90.461 -38.828 C -88.76 -38.828 -87.165 -40.275 -87.071 -40.366 C -86.342 -41.106 -85.561 -41.783 -84.728 -42.39 L -84.457 -42.583 C -83.508 -43.282 -82.32 -44.151 -80.893 -44.63 C -77.481 -45.685 -75.78 -47.508 -74.902 -49.07 C -72.707 -52.806 -70.415 -53.599 -68.847 -53.948 C -68.617 -53.993 -68.388 -54.019 -68.158 -54.019 C -67.619 -54.019 -65.928 -53.599 -64.869 -54.36 C -63.934 -55 -63.278 -55.31 -62.336 -55.31 C -62.203 -55.31 -62.074 -55.304 -61.945 -55.29 L -61.832 -55.274 L -61.716 -55.252 C -61.564 -55.22 -61.426 -55.188 -61.286 -55.146 C -60.809 -54.98 -59.53 -54.896 -58.504 -55.639 C -57.942 -55.987 -57.441 -56.246 -56.693 -56.246 C -55.947 -56.246 -55.45 -55.987 -54.886 -55.639 C -53.862 -54.896 -52.584 -54.98 -52.1 -55.146 C -51.964 -55.188 -51.822 -55.22 -51.674 -55.252 L -51.558 -55.274 L -51.441 -55.29 C -51.318 -55.304 -51.183 -55.31 -51.057 -55.31 C -50.111 -55.31 -49.459 -55 -48.517 -54.36 C -47.465 -53.599 -45.767 -54.019 -45.23 -54.019 C -45.005 -54.019 -44.772 -53.993 -44.546 -53.948 C -42.975 -53.599 -40.386 -52.806 -38.19 -49.07 C -37.313 -47.508 -35.617 -45.685 -32.203 -44.63 C -30.775 -44.151 -29.588 -43.282 -28.639 -42.583 L -28.374 -42.39 C -27.538 -41.783 -26.754 -41.106 -26.021 -40.366 C -25.931 -40.275 -24.333 -38.828 -22.635 -38.828 C -22.367 -38.828 -21.728 -38.729 -21.473 -38.63 C -19.229 -37.804 -17.754 -35.842 -16.838 -34.439 C -16.453 -33.86 -16.127 -33.271 -15.862 -32.766 C -15.333 -31.631 -14.106 -30.874 -12.887 -30.609 C -11.379 -30.244 -10.604 -28.873 -10.323 -28.379 L -10.304 -28.342 C -9.049 -26.189 -8.109 -23.787 -7.541 -21.307 C -7.318 -20.303 -6.908 -19.33 -5.508 -18.644 C -4.707 -18.279 -3.803 -17.489 -3.251 -15.813 C -2.621 -13.9 -2.305 -11.986 -2.305 -10.123 C -2.305 -7.396 -.924 -6.348 -.84 -6.256 C -.007 -5.388 .142 -4.26 .145 -3.473 C .145 -3.187 .058 -.793 0 0 " fill="#000000"/>
<path transform="matrix(1,0,0,-1,80.0752,122.9705)" d="M 0 0 C -.727 .001 -.224 -5.584 -.12 -6.269 C .003 -7.063 .248 -7.886 .719 -7.863 C 1.375 -7.824 2.817 -7.097 3.082 -6.426 C 3.191 -6.146 3.146 -5.776 3.018 -5.383 C 2.607 -4.132 .429 -.008 0 0 " fill="#ffffff"/>
<path transform="matrix(1,0,0,-1,86.7402,126.2625)" d="M 0 0 C -.229 .555 -1.249 .542 -1.63 .332 C -2.369 -.073 -2.137 -.766 -2.027 -1.488 C -1.943 -2.054 -1.82 -2.935 -1.278 -3.183 C -.984 -3.319 -.349 -3.165 -.184 -2.812 C .12 -2.167 .239 -.762 .02 -.063 C .013 -.043 .007 -.021 0 0 " fill="#ffffff"/>
<path transform="matrix(1,0,0,-1,89.0449,125.3045)" d="M 0 0 C -.361 -.048 -.839 -.218 -.839 -.715 C -.839 -1.546 -.93 -3.23 -.067 -3.635 C .833 -4.053 1.001 -2.705 1.06 -2.026 C 1.107 -1.42 1.162 -.77 .946 -.371 C .794 -.097 .511 .063 0 0 " fill="#ffffff"/>
<path transform="matrix(1,0,0,-1,76.6465,112.407)" d="M 0 0 C .774 -1.43 1.317 .652 1.452 1.385 C 1.644 2.414 1.927 6.17 1.882 6.922 C 1.833 6.918 -2.386 7.126 -2.372 7.271 C -2.418 6.611 -.542 1.002 0 0 " fill="#ffffff"/>
<path transform="matrix(1,0,0,-1,62.0986,79.2737)" d="M 0 0 C .478 .315 .852 -.571 1.081 -.847 C 1.994 -1.976 3.021 -2.723 4.402 -3.15 C 5.242 -3.407 6.042 -3.425 6.917 -3.528 C 7.053 -3.542 7.327 -3.563 7.443 -3.619 C 8.431 -4.077 6.307 -4.921 6.004 -5.005 C 4.738 -5.355 3.186 -5.482 1.981 -4.864 C .958 -4.336 .251 -3.278 -.117 -2.209 C -.271 -1.75 -.504 -.331 0 0 M 2.117 4.677 C 2.491 4.94 3.131 4.029 3.314 3.762 C 3.709 3.208 4.125 2.704 4.654 2.274 C 6.336 .915 8.57 .479 10.542 .381 C 11.232 .345 11.924 .433 12.611 .396 C 12.809 .387 13.202 .31 13.299 .085 C 13.312 .043 13.321 0 13.312 -.053 C 13.286 -.279 12.847 -.544 12.673 -.663 C 11.752 -1.297 10.332 -1.677 9.222 -1.761 C 8.044 -1.85 6.85 -1.678 5.732 -1.281 C 4.318 -.771 3.188 .153 2.459 1.47 C 2.075 2.172 1.529 4.274 2.117 4.677 M .48 -7.166 C 1.059 -7.955 1.727 -8.901 2.259 -9.66 C 3.26 -11.075 3.131 -9.619 3.918 -8.609 C 4.222 -8.223 4.261 -7.837 4.719 -7.626 C 5.342 -7.329 6.365 -7.595 7.314 -6.955 C 7.812 -6.619 8.695 -5.173 9.202 -4.86 C 9.735 -4.522 12.008 -6.051 13.393 -5.529 C 14.164 -5.239 14.303 -1.985 15.136 -1.675 C 15.529 -1.53 15.979 -1.528 16.381 -1.43 C 17.599 -1.131 17.279 .457 17.146 1.417 C 17.033 2.179 16.966 3.47 15.242 3.155 C 13.531 2.839 12.182 2.762 10.549 2.962 C 9.174 3.171 7.844 3.649 6.84 4.4 C 5.742 5.228 5.016 6.399 4.325 7.568 C 3.999 8.12 3.479 8.988 2.733 8.941 C .594 8.799 .626 6.166 .516 4.563 C .487 4.119 .658 2.255 .125 2.026 C -.281 1.843 -.795 2.356 -1.014 2.655 C -1.485 3.283 -1.827 4.902 -2.034 5.1 C -2.25 5.273 -2.618 .021 -3.906 -1.761 C -4.332 -2.355 -4.997 -2.739 -5.275 -3.438 C -5.494 -4.009 -5.481 -4.64 -5.269 -5.213 C -5.049 -5.792 -4.349 -7.032 -4.032 -7.711 C -3.713 -8.396 -3.219 -10.063 -3.219 -11.172 C -3.219 -12.286 -4.042 -15.291 -3.436 -17.145 C -2.986 -18.49 -1.482 -19.79 -.201 -20.286 C .475 -20.554 1.311 -20.684 1.801 -20.04 C 2.514 -19.083 1.979 -17.872 1.426 -17.006 C 1.106 -16.5 .832 -15.963 .594 -15.414 C .019 -14.071 -.362 -11.831 -.691 -10.402 C -.963 -9.224 -1.008 -9.595 -1.218 -8.407 C -1.314 -7.868 -.711 -5.491 .48 -7.166 " fill="#ffffff"/>
<path transform="matrix(1,0,0,-1,82.1631,108.4305)" d="M 0 0 C -.255 -.461 -.304 -1.094 -.355 -1.643 C -.406 -2.107 -.555 -3.432 .042 -3.432 C .529 -3.432 1.082 -3.477 1.259 -2.695 C 1.369 -2.217 1.175 -.434 .665 .146 C .42 .388 .181 .321 0 0 " fill="#ffffff"/>
<path transform="matrix(1,0,0,-1,85.1006,108.1765)" d="M 0 0 C -.268 -.465 -.365 -2.65 -.097 -2.846 C .174 -3.039 .452 -3.046 .749 -3.007 C 1.137 -2.959 1.501 -2.804 1.572 -2.324 C 1.659 -1.688 1.582 .534 .784 .534 C .478 .534 .155 .272 0 0 " fill="#ffffff"/>
<path transform="matrix(1,0,0,-1,89.4619,107.100399)" d="M 0 0 C -.152 .111 -.326 .155 -.526 .104 C -1.063 -.032 -1.314 -.809 -1.379 -1.395 C -1.434 -1.959 -1.443 -2.67 -1.314 -3.213 C -1.23 -3.547 -1.188 -3.604 -.907 -3.621 C -.507 -3.65 .339 -3.739 .51 -3.172 C .713 -2.505 .703 -1.412 .475 -.737 C .371 -.447 .223 -.16 0 0 " fill="#ffffff"/>
<path transform="matrix(1,0,0,-1,97.4502,86.1316)" d="M 0 0 C -.948 0 -3.418 -.753 -6.617 -.753 C -9.815 -.753 -12.194 0 -13.363 0 C -14.538 0 -14.771 -1.143 -13.764 -2.535 C -13.234 -3.279 -11.956 -4.869 -11.368 -4.606 C -10.681 -4.298 -12.056 -3.057 -11.943 -2.587 C -11.823 -2.087 -11.078 -2.209 -10.703 -2.282 C -8.74 -2.665 -7.411 -2.505 -7.918 -4.027 C -8.314 -4.871 -9.184 -5.421 -9.748 -5.893 C -10.349 -6.402 -9.328 -7.31 -8.979 -7.629 C -8.309 -8.237 -7.275 -8.576 -6.613 -8.576 C -5.952 -8.576 -4.912 -8.237 -4.241 -7.629 C -3.889 -7.31 -2.866 -6.402 -3.473 -5.893 C -4.041 -5.421 -5.103 -4.871 -5.5 -4.027 C -6.004 -2.505 -4.477 -2.665 -2.523 -2.282 C -2.143 -2.209 -1.395 -2.087 -1.277 -2.587 C -1.168 -3.057 -2.523 -4.315 -1.833 -4.624 C -1.252 -4.889 .088 -3.174 .543 -2.535 C 1.604 -1.143 .956 0 0 0 " fill="#ffffff"/>
<path transform="matrix(1,0,0,-1,100.8887,130.8338)" d="M 0 0 C .475 -.022 .71 .801 .836 1.595 C .939 2.279 1.442 7.864 .717 7.863 C .284 7.855 -1.892 3.731 -2.302 2.48 C -2.428 2.087 -2.476 1.717 -2.366 1.438 C -2.102 .767 -.655 .039 0 0 " fill="#ffffff"/>
<path transform="matrix(1,0,0,-1,96.5664,125.9305)" d="M 0 0 C -.378 .21 -1.395 .223 -1.627 -.332 C -1.637 -.354 -1.64 -.375 -1.646 -.396 C -1.866 -1.094 -1.75 -2.499 -1.446 -3.144 C -1.278 -3.497 -.643 -3.651 -.349 -3.515 C .19 -3.267 .316 -2.386 .403 -1.82 C .507 -1.098 .742 -.405 0 0 " fill="#ffffff"/>
<path transform="matrix(1,0,0,-1,92.6348,125.3045)" d="M 0 0 C -.511 .063 -.794 -.097 -.949 -.371 C -1.162 -.77 -1.11 -1.42 -1.059 -2.026 C -1.001 -2.705 -.833 -4.053 .071 -3.635 C .93 -3.23 .843 -1.546 .839 -.715 C .839 -.218 .361 -.048 0 0 " fill="#ffffff"/>
<path transform="matrix(1,0,0,-1,103.5811,111.022197)" d="M 0 0 C .139 -.732 .681 -2.814 1.449 -1.385 C 1.991 -.383 3.87 5.227 3.828 5.887 C 3.838 5.741 -.385 5.533 -.43 5.537 C -.479 4.785 -.191 1.029 0 0 " fill="#ffffff"/>
<path transform="matrix(1,0,0,-1,100.4336,107.157)" d="M 0 0 C -.178 .593 -.942 1.018 -1.427 1.201 C -1.914 1.39 -4.545 2.574 -5.969 3.242 C -7.47 3.946 -8.773 4.515 -9.597 4.515 C -10.511 4.515 -12.024 3.814 -13.738 2.998 C -15.023 2.386 -17.341 1.361 -17.757 1.201 C -18.181 1.041 -19.013 .593 -19.19 0 C -19.342 -.498 -18.978 -.467 -18.703 -.381 C -18.315 -.256 -17.806 .283 -17.347 .236 C -16.863 .184 -16.585 -.858 -16.092 -.285 C -15.643 .229 -15.207 .851 -14.577 .984 C -14.106 1.08 -13.761 .578 -13.37 .385 C -12.599 .007 -12.337 1.449 -11.479 1.602 C -10.704 1.735 -10.395 .809 -9.597 .809 C -8.793 .809 -8.483 1.735 -7.708 1.602 C -6.85 1.449 -6.553 -.047 -5.781 .336 C -5.385 .528 -5.084 1.08 -4.616 .984 C -3.98 .851 -3.544 .344 -3.099 -.166 C -2.603 -.738 -2.331 .184 -1.84 .236 C -1.379 .283 -.872 -.256 -.484 -.381 C -.21 -.467 .155 -.498 0 0 " fill="#ffffff"/>
<path transform="matrix(1,0,0,-1,93.4092,96.7791)" d="M 0 0 C -1.252 -1.254 -1.285 -2.795 -.484 -3.82 C .313 -4.84 5.397 -6.328 6.772 -6.538 C 8.986 -6.874 11.272 -6.864 13.519 -6.612 C 15.071 -6.439 16.663 -5.947 18.012 -5.159 C 18.696 -4.761 20.385 -3.622 20.242 -2.665 C 20.117 -1.821 19.322 -2.302 18.961 -2.548 C 18.293 -2.999 17.477 -3.349 16.73 -3.649 C 10.059 -5.812 7.431 -4.198 6.495 -3.791 C 6.152 -3.64 4.248 -2.753 4.643 -2.154 C 4.81 -1.904 5.397 -1.366 6.656 -1.872 C 7.941 -2.387 9.139 -2.416 10.523 -2.407 C 12.393 -2.392 12.519 -2.302 14.319 -1.78 C 16.166 -1.244 17.87 -.233 19.361 .967 C 19.774 1.308 20.602 2.131 20.563 2.704 C 20.498 3.669 19.148 2.796 18.857 2.593 C 18.296 2.206 17.225 1.229 14.926 .548 C 11.641 -.47 9.316 -.245 7.463 .423 C 6.74 .728 6.973 1.788 7.947 1.837 C 8.78 1.884 12.057 .663 16.95 3.983 C 17.887 4.703 20.155 6.053 19.703 7.405 C 19.487 8.067 18.574 7.657 17.534 6.556 C 16.905 5.853 15.158 4.478 13.842 3.851 C 10.826 2.31 8.273 3.442 7.922 3.664 C 7.573 3.887 7.96 4.352 8.67 4.574 C 9.497 4.87 11.834 5.009 13.519 6.009 C 17.063 8.098 16.873 9.931 16.404 10.234 C 15.811 10.628 14.926 9.326 14.52 9.042 C 9.045 5.268 9.703 8.696 9.735 9.606 C 9.745 9.813 9.926 10.615 10.117 12.878 C 10.168 13.556 9.758 14.398 9.09 13.548 C 8.561 12.773 8.393 11.908 7.573 9.521 C 5.836 4.669 1.259 1.257 0 0 " fill="#ffffff"/>
<path transform="matrix(1,0,0,-1,88.29,96.907)" d="M 0 0 C 1.256 -1.254 1.284 -2.795 .49 -3.818 C -.311 -4.838 -5.391 -6.324 -6.772 -6.536 C -8.983 -6.871 -11.266 -6.861 -13.513 -6.611 C -15.065 -6.439 -16.656 -5.945 -18.006 -5.158 C -18.69 -4.754 -20.382 -3.619 -20.239 -2.662 C -20.117 -1.821 -19.322 -2.301 -18.955 -2.548 C -18.29 -2.996 -17.477 -3.347 -16.728 -3.648 C -10.056 -5.812 -7.428 -4.195 -6.495 -3.787 C -6.146 -3.637 -4.242 -2.751 -4.639 -2.152 C -4.804 -1.905 -5.391 -1.365 -6.65 -1.868 C -7.938 -2.385 -9.129 -2.41 -10.517 -2.406 C -12.389 -2.391 -12.516 -2.303 -14.313 -1.779 C -16.156 -1.24 -17.867 -.232 -19.355 .973 C -19.774 1.31 -20.595 2.133 -20.556 2.705 C -20.491 3.676 -19.143 2.796 -18.852 2.594 C -18.293 2.215 -17.222 1.232 -14.92 .551 C -11.634 -.467 -9.31 -.243 -7.457 .426 C -6.733 .732 -6.963 1.791 -7.941 1.841 C -8.773 1.886 -12.047 .662 -16.94 3.982 C -17.883 4.709 -20.149 6.056 -19.703 7.407 C -19.478 8.067 -18.57 7.661 -17.531 6.558 C -16.898 5.853 -15.146 4.479 -13.838 3.855 C -10.82 2.313 -8.264 3.449 -7.915 3.666 C -7.566 3.887 -7.954 4.355 -8.664 4.576 C -9.49 4.868 -11.827 5.01 -13.519 6.011 C -17.061 8.1 -16.863 9.933 -16.398 10.236 C -15.805 10.629 -14.926 9.326 -14.514 9.047 C -9.039 5.271 -9.703 8.698 -9.732 9.61 C -9.742 9.817 -9.923 10.617 -10.11 12.878 C -10.165 13.56 -9.755 14.4 -9.087 13.55 C -8.555 12.777 -8.387 11.909 -7.57 9.521 C -5.833 4.672 -1.253 1.26 0 0 " fill="#ffffff"/>
<path transform="matrix(1,0,0,-1,123.5967,43.835695)" d="M 0 0 C 2.283 .61 3.422 -.104 5.701 .586 C 7.26 1.058 10.149 2.918 11.401 1.259 C 12.199 .207 12.65 -1.825 12.706 -3.086 C 12.78 -4.947 12.496 -7.314 12.102 -9.132 C 11.866 -10.208 10.014 -18.533 8.319 -16.007 C 7.803 -15.236 6.838 -11.023 4.861 -8.22 C 3.193 -5.844 .498 -4.848 -.135 -3.983 C -.8 -3.079 -1.523 -.406 0 0 M -3.163 -6.846 C -5.177 -6.782 -6.752 -6 -8.153 -4.614 C -9.803 -2.982 -11.788 -2.332 -14.057 -2.061 C -15.297 -1.916 -16.533 -2.111 -17.753 -1.782 C -19.231 -1.383 -20.181 -.758 -21.969 .237 C -23.428 1.056 -24.674 1.461 -26.143 1.538 C -27.792 1.63 -31.201 -.376 -32.712 -.376 C -34.229 -.376 -37.722 1.63 -39.371 1.538 C -40.843 1.461 -42.082 1.056 -43.548 .237 C -45.333 -.758 -46.282 -1.383 -47.76 -1.782 C -48.98 -2.111 -50.214 -1.916 -51.459 -2.061 C -53.726 -2.332 -55.714 -2.982 -57.36 -4.614 C -58.765 -6 -60.34 -6.782 -62.357 -6.846 C -63.1 -6.867 -64.914 -6.871 -63.868 -5.742 C -63.268 -5.087 -62.528 -4.528 -61.879 -3.902 C -60.84 -2.908 -60.001 -1.693 -58.826 -.842 C -57.554 .086 -56.05 .68 -54.529 1.064 C -52.751 1.513 -50.64 1.432 -48.887 2.005 C -46.928 2.647 -45.284 3.661 -43.409 4.52 C -40.311 5.937 -37.244 5.334 -34.074 4.545 C -33.796 4.476 -33.135 4.376 -32.767 4.376 C -32.401 4.376 -31.721 4.476 -31.439 4.545 C -28.273 5.334 -25.203 5.937 -22.104 4.52 C -20.226 3.661 -18.59 2.647 -16.627 2.005 C -14.874 1.432 -12.763 1.513 -10.987 1.064 C -9.464 .68 -7.966 .086 -6.685 -.842 C -5.513 -1.693 -4.674 -2.908 -3.634 -3.902 C -2.985 -4.528 -2.246 -5.087 -1.643 -5.742 C -.597 -6.871 -2.414 -6.867 -3.163 -6.846 M -19.164 -4.582 C -18.883 -4.831 -17.431 -6.033 -17.914 -6.735 C -18.153 -7.077 -18.444 -6.896 -18.719 -6.78 C -19.457 -6.46 -20.174 -6.138 -20.917 -5.831 C -23.435 -4.785 -26.281 -4.367 -28.86 -5.251 C -29.639 -5.52 -32.24 -6.79 -32.712 -6.79 C -33.183 -6.79 -35.778 -5.52 -36.56 -5.251 C -39.142 -4.367 -41.982 -4.785 -44.5 -5.831 C -45.249 -6.138 -45.963 -6.46 -46.701 -6.78 C -46.976 -6.896 -47.27 -7.077 -47.509 -6.735 C -47.989 -6.033 -46.54 -4.831 -46.256 -4.582 C -44.332 -2.877 -42.276 -2.069 -40.059 -1.575 C -39.364 -1.425 -38.651 -1.334 -37.928 -1.334 C -35.481 -1.334 -33.67 -2.709 -32.653 -2.709 C -31.637 -2.709 -30.071 -1.334 -27.488 -1.334 C -26.772 -1.334 -26.053 -1.425 -25.365 -1.575 C -23.141 -2.069 -21.091 -2.877 -19.164 -4.582 M -32.76 -10.179 C -32.44 -10.179 -30.778 -8.933 -27.566 -8.002 C -25.484 -7.442 -23.156 -7.347 -21.053 -7.792 C -20.045 -8.003 -19.063 -8.347 -18.128 -8.827 C -17.669 -9.058 -16.74 -9.501 -16.843 -10.276 C -16.901 -10.704 -17.488 -10.539 -17.721 -10.481 C -19.929 -9.919 -24.244 -9.622 -29.035 -12.531 C -29.938 -13.087 -32.479 -14.823 -32.76 -14.823 C -33.037 -14.823 -35.578 -13.087 -36.482 -12.531 C -40.479 -10.043 -45.578 -9.919 -47.786 -10.481 C -48.025 -10.539 -48.609 -10.704 -48.668 -10.276 C -48.773 -9.501 -47.844 -9.058 -47.386 -8.827 C -46.449 -8.347 -45.469 -8.003 -44.465 -7.792 C -42.356 -7.347 -40.033 -7.442 -37.947 -8.002 C -34.738 -8.933 -33.073 -10.179 -32.76 -10.179 M -12.988 -14.984 C -12.395 -15.675 -13.096 -15.686 -13.737 -15.592 C -14.07 -15.549 -15.438 -15.326 -15.913 -15.271 C -17.869 -15.058 -20.07 -15.295 -22.001 -15.811 C -24.345 -16.437 -28.118 -18.013 -29.793 -22.05 C -31.473 -26.083 -31.281 -31.597 -31.42 -34.626 C -31.563 -37.562 -31.982 -38.619 -32.76 -38.619 C -33.535 -38.619 -33.954 -37.562 -34.094 -34.626 C -34.235 -31.597 -34.048 -26.083 -35.72 -22.05 C -37.398 -18.013 -41.166 -16.437 -43.509 -15.811 C -45.439 -15.295 -47.645 -15.058 -49.601 -15.271 C -50.071 -15.326 -51.447 -15.549 -51.772 -15.592 C -52.422 -15.686 -53.122 -15.675 -52.525 -14.984 C -51.705 -14.035 -50.232 -13.486 -49.067 -13.26 C -47.257 -12.912 -45.281 -12.963 -43.474 -13.255 C -41.85 -13.517 -40.246 -14.035 -38.741 -14.744 C -37.356 -15.402 -33.273 -18.099 -32.795 -18.099 C -32.321 -18.099 -28.16 -15.402 -26.772 -14.744 C -25.271 -14.035 -23.667 -13.517 -22.037 -13.255 C -20.226 -12.963 -18.26 -12.912 -16.449 -13.26 C -15.284 -13.486 -13.809 -14.035 -12.988 -14.984 M -8.954 -19.854 C -8.457 -20.058 -5 -21.488 -5.713 -22.429 C -6 -22.805 -7.798 -22.203 -8.134 -22.132 C -9.187 -21.905 -10.232 -21.645 -11.287 -21.438 C -13.066 -21.095 -15.178 -20.771 -16.994 -20.836 C -18.557 -20.893 -20.322 -21.125 -21.73 -21.859 C -25.998 -24.093 -26.686 -29.476 -27.502 -33.735 C -27.644 -34.47 -27.74 -35.209 -27.992 -35.922 C -28.131 -36.333 -28.929 -37.417 -29.451 -36.677 C -29.846 -35.929 -29.709 -34.5 -29.639 -33.574 C -29.458 -31.122 -28.957 -25.762 -27.137 -22.67 C -25.319 -19.576 -21.285 -17.833 -14.965 -18.322 C -12.966 -18.582 -10.819 -19.08 -8.954 -19.854 M -35.648 -33.062 C -35.543 -33.985 -35.346 -35.407 -35.707 -36.169 C -36.197 -36.934 -37.037 -35.885 -37.198 -35.48 C -37.47 -34.778 -37.605 -34.043 -37.779 -33.313 C -38.773 -29.097 -39.688 -23.745 -44.042 -21.691 C -45.481 -21.017 -47.257 -20.859 -48.825 -20.872 C -50.637 -20.88 -52.731 -21.293 -54.497 -21.713 C -55.54 -21.959 -56.572 -22.265 -57.612 -22.536 C -57.954 -22.623 -59.723 -23.301 -60.026 -22.939 C -60.775 -22.024 -57.38 -20.451 -56.898 -20.228 C -55.063 -19.374 -52.941 -18.788 -50.949 -18.444 C -44.661 -17.689 -40.553 -19.259 -38.605 -22.274 C -36.662 -25.291 -35.93 -30.622 -35.648 -33.062 M -66.502 -4.233 C -67.135 -5.098 -69.833 -6.097 -71.499 -8.472 C -73.478 -11.276 -74.442 -15.487 -74.959 -16.257 C -76.657 -18.783 -78.507 -10.46 -78.739 -9.382 C -79.136 -7.566 -79.42 -5.7 -79.343 -3.841 C -79.291 -2.581 -78.833 -.043 -78.042 1.004 C -76.786 2.667 -73.894 .807 -72.338 .334 C -70.059 -.355 -68.923 .36 -66.638 -.251 C -65.113 -.658 -65.837 -3.33 -66.502 -4.233 M 19.395 -39.04 C 19.795 -39.297 20.214 -39.526 20.649 -39.721 C 21.099 -39.92 21.195 -39.688 21.221 -39.249 C 21.318 -37.528 20.479 -35.543 19.742 -34.021 C 18.594 -31.645 16.932 -29.6 15.236 -27.589 C 15.011 -27.321 13.242 -25.538 14.223 -25.433 C 14.63 -25.391 15.14 -25.643 15.514 -25.796 C 15.959 -25.975 17.567 -26.359 17.945 -26.263 C 18.968 -25.991 16.141 -21.868 15.885 -21.299 C 15.204 -19.753 15.191 -17.447 15.446 -15.806 C 15.714 -14.083 16.173 -12.395 16.477 -10.683 C 16.982 -7.849 17.419 -4.22 16.922 -1.355 C 16.644 .249 15.959 1.921 15.046 3.272 C 14.452 4.153 13.177 5.028 12.08 5.099 C 10.808 5.185 9.969 4.929 8.723 4.732 C 3.668 3.935 -1.801 3.157 -6.891 3.769 C -9.561 4.09 -12.211 4.683 -14.764 5.488 C -15.545 5.735 -16.32 5.993 -17.095 6.259 C -18.776 6.835 -20.355 7.654 -22.053 8.173 C -23.87 8.73 -25.868 9.071 -27.76 8.743 C -29.513 8.441 -31.317 7.589 -32.76 7.589 C -34.193 7.589 -36.004 8.441 -37.754 8.743 C -39.646 9.071 -41.644 8.73 -43.464 8.173 C -45.158 7.654 -46.74 6.835 -48.416 6.259 C -49.193 5.993 -49.969 5.735 -50.75 5.488 C -53.306 4.683 -55.953 4.09 -58.626 3.769 C -63.716 3.157 -69.182 3.935 -74.236 4.732 C -75.482 4.929 -76.324 5.185 -77.593 5.099 C -78.688 5.028 -79.966 4.153 -80.563 3.272 C -81.477 1.921 -82.16 -.256 -82.436 -1.857 C -82.932 -4.724 -82.5 -7.849 -81.989 -10.683 C -81.687 -12.395 -81.23 -14.083 -80.963 -15.806 C -80.708 -17.447 -80.718 -19.753 -81.398 -21.299 C -81.654 -21.868 -84.484 -25.991 -83.458 -26.263 C -83.08 -26.359 -81.477 -25.975 -81.027 -25.796 C -80.653 -25.643 -80.144 -25.391 -79.736 -25.433 C -78.755 -25.538 -80.524 -27.321 -80.75 -27.589 C -82.441 -29.6 -84.107 -31.645 -85.256 -34.021 C -85.992 -35.543 -86.832 -37.528 -86.734 -39.249 C -86.709 -39.688 -86.612 -39.92 -86.166 -39.721 C -85.73 -39.526 -85.308 -39.297 -84.908 -39.04 C -84.908 -39.04 -83.526 -38.14 -83.255 -38.595 C -82.919 -39.148 -83.616 -39.894 -83.914 -40.302 C -85.618 -42.659 -86.16 -45.777 -86.37 -48.602 C -86.435 -49.438 -86.65 -52.417 -86.257 -52.644 C -85.789 -52.919 -85.188 -52.142 -84.943 -51.844 C -84.504 -51.314 -84.107 -50.766 -83.568 -50.323 C -83.158 -49.994 -82.765 -52.173 -83.055 -52.94 C -83.629 -54.47 -83.994 -56.431 -84.053 -58.056 C -84.107 -59.823 -83.807 -61.612 -83.262 -63.272 C -83.158 -63.586 -82.822 -64.435 -82.396 -64.333 C -81.932 -64.222 -80.137 -60.757 -79.575 -61.076 C -79.01 -61.39 -79.769 -63.453 -79.252 -67.062 C -78.858 -69.931 -77.916 -72.73 -76.457 -75.24 C -76.341 -75.442 -75.988 -76.116 -75.679 -76.116 C -75.162 -76.112 -75.14 -74.954 -75.114 -74.632 C -75.043 -73.863 -74.917 -73.017 -74.556 -72.325 C -74.281 -71.801 -73.816 -71.457 -73.478 -72.118 C -73.067 -72.921 -73.226 -74.093 -71.977 -77.429 C -71.722 -78.106 -71.363 -78.743 -71.037 -79.39 C -70.721 -80.007 -70.382 -80.624 -70.001 -81.212 C -69.239 -82.382 -68.193 -83.729 -66.831 -84.234 C -66.508 -84.353 -66.386 -84.207 -66.344 -83.989 C -66.302 -83.751 -66.582 -80.868 -66.137 -79.963 C -65.649 -79.058 -63.633 -81.735 -62.796 -82.889 C -61.795 -84.261 -60.592 -85.48 -59.22 -86.479 C -58.293 -87.15 -57.283 -87.936 -56.191 -88.309 C -54.777 -88.781 -55.197 -87.579 -55.359 -86.654 C -55.572 -85.442 -56.327 -81.267 -56.614 -80.081 C -57.108 -78.021 -57.851 -77.952 -59.685 -76.828 C -60.389 -76.396 -61.117 -75.455 -61.279 -74.635 C -61.518 -73.484 -61.312 -72.285 -61.67 -71.15 C -61.918 -70.362 -62.796 -69.654 -63.555 -69.399 C -65.708 -68.673 -67.983 -69.534 -70.156 -68.93 C -71.744 -68.491 -72.684 -67.794 -73.271 -66.237 C -73.791 -64.851 -73.832 -63.251 -73.674 -61.794 C -73.559 -60.681 -73.742 -59.466 -74.427 -58.547 C -75.063 -57.692 -76.108 -57.357 -76.834 -56.604 C -77.383 -56.026 -77.864 -55.323 -78.097 -54.562 C -78.675 -52.644 -77.399 -50.926 -77.063 -49.104 C -76.702 -47.165 -78.216 -45.293 -79.232 -43.765 C -81.273 -40.714 -80.021 -37.483 -78.164 -34.752 C -77.225 -33.377 -76.137 -32.011 -75.715 -30.375 C -75.256 -28.585 -76.115 -26.942 -76.25 -25.176 C -76.396 -23.197 -75.973 -22.042 -74.271 -20.998 C -73.223 -20.355 -72.254 -19.763 -71.477 -18.783 C -70.059 -16.997 -69.855 -14.477 -68.752 -12.499 C -68.367 -11.796 -67.877 -10.954 -67.257 -10.428 C -66.033 -9.39 -64.229 -9.046 -62.68 -8.87 C -61.215 -8.71 -59.729 -8.505 -58.335 -7.996 C -57.102 -7.543 -53.335 -5.064 -52.131 -4.698 C -50.93 -4.33 -47.828 -4.403 -48.965 -6.207 C -49.322 -6.775 -53.971 -9.319 -55.065 -10.356 C -56.043 -11.28 -57.041 -11.909 -58.357 -12.23 C -59.529 -12.515 -60.854 -12.321 -62.015 -12.576 C -62.926 -12.773 -63.99 -13.389 -64.565 -14.121 C -65.782 -15.655 -66.012 -17.397 -66.844 -19.101 C -67.558 -20.58 -68.497 -21.895 -69.91 -22.763 C -70.439 -23.094 -70.995 -23.42 -71.373 -23.938 C -72.028 -24.833 -71.618 -25.941 -71.359 -26.896 C -70.898 -28.577 -71.118 -31.289 -71.702 -32.912 C -72.15 -34.161 -72.693 -35.009 -73.545 -36.008 C -74.32 -36.908 -75.104 -37.851 -75.495 -38.987 C -76.018 -40.481 -75.686 -42.181 -74.823 -43.485 C -73.968 -44.757 -72.81 -45.922 -72.564 -47.499 C -72.332 -48.965 -73.087 -50.122 -73.391 -51.5 C -73.545 -52.207 -73.525 -53.154 -73.181 -53.804 C -72.887 -54.365 -72.393 -54.618 -71.883 -54.939 C -71.376 -55.269 -70.84 -55.595 -70.537 -56.138 C -69.939 -57.219 -69.724 -58.563 -69.724 -59.788 C -69.727 -60.903 -69.637 -62.13 -68.787 -62.943 C -67.89 -63.8 -66.73 -64.095 -65.511 -63.946 C -64.026 -63.76 -62.79 -63.354 -61.414 -64.122 C -61.053 -64.328 -60.604 -64.755 -60.382 -65.119 C -60.201 -65.417 -60.059 -65.743 -59.862 -66.03 C -59.452 -66.657 -58.542 -67.245 -57.789 -66.907 C -56.779 -66.546 -56.94 -64.519 -57.938 -63.038 C -58.938 -61.554 -60.256 -60.292 -61.947 -60.288 C -62.729 -60.288 -63.513 -60.535 -64.294 -60.483 C -65.721 -60.387 -66.773 -59.433 -66.715 -57.972 C -66.683 -57.089 -66.786 -55.99 -67.276 -55.224 C -67.845 -54.341 -68.745 -53.921 -69.232 -52.956 C -69.701 -52.034 -69.449 -51.121 -69.155 -50.185 C -68.516 -48.112 -68.688 -45.446 -69.984 -43.648 C -70.443 -43.002 -70.982 -42.421 -71.402 -41.747 C -72.412 -40.117 -71.434 -38.311 -70.337 -37.028 C -69.581 -36.153 -69.02 -35.038 -68.441 -33.988 C -67.684 -32.605 -67.457 -30.559 -67.651 -29.013 C -67.813 -27.694 -68.619 -26.148 -67.99 -24.896 C -67.58 -24.079 -67.105 -23.953 -65.921 -22.776 C -64.752 -21.598 -63.348 -16.407 -62.293 -15.507 C -61.447 -14.785 -60.928 -14.785 -58.877 -14.569 C -57.464 -14.422 -57.496 -14.167 -55.127 -12.942 C -52.767 -11.716 -51.014 -11.522 -50.652 -11.925 C -50.362 -12.258 -50.756 -12.789 -50.963 -13.028 C -51.324 -13.442 -54.242 -16.001 -54.852 -16.416 C -55.559 -16.895 -56.566 -18.531 -58.103 -19.017 C -59.636 -19.498 -61.011 -21.175 -61.467 -22.084 C -61.918 -22.994 -62.68 -25.605 -61.512 -25.473 C -60.766 -25.355 -55.521 -23.504 -53.558 -23.317 C -51.831 -23.151 -50.033 -23.057 -48.315 -23.243 C -46.301 -23.46 -44.436 -24.242 -43.157 -25.865 C -42.463 -26.743 -42.115 -27.904 -41.866 -28.982 C -41.305 -31.384 -41.217 -33.885 -40.917 -36.326 C -40.795 -37.321 -40.872 -38.561 -39.994 -39.249 C -39.406 -39.702 -36.795 -40.704 -32.76 -40.704 C -28.722 -40.704 -26.104 -39.702 -25.52 -39.249 C -24.642 -38.561 -24.719 -37.321 -24.597 -36.326 C -24.3 -33.885 -24.213 -31.384 -23.647 -28.982 C -23.398 -27.904 -23.054 -26.743 -22.363 -25.865 C -21.081 -24.242 -19.209 -23.46 -17.191 -23.243 C -15.484 -23.057 -13.686 -23.151 -11.959 -23.317 C -9.993 -23.504 -4.467 -25.355 -3.721 -25.473 C -2.547 -25.605 -3.453 -24.003 -3.908 -23.089 C -4.36 -22.181 -5.59 -19.498 -7.127 -19.017 C -8.663 -18.531 -9.516 -16.895 -10.219 -16.416 C -10.832 -16.001 -14.189 -13.442 -14.551 -13.028 C -14.764 -12.789 -15.154 -12.258 -14.861 -11.925 C -14.503 -11.522 -12.75 -11.716 -10.384 -12.942 C -8.021 -14.167 -8.05 -14.422 -6.637 -14.569 C -4.583 -14.785 -4.066 -14.785 -3.215 -15.507 C -2.162 -16.407 -.765 -21.598 .414 -22.776 C 1.589 -23.953 2.063 -24.079 2.477 -24.896 C 3.105 -26.148 2.299 -27.694 2.135 -29.013 C 1.943 -30.559 2.17 -32.605 2.925 -33.988 C 3.5 -35.038 4.068 -36.153 4.82 -37.028 C 5.921 -38.311 6.898 -40.117 5.889 -41.747 C 5.469 -42.421 4.93 -43.002 4.468 -43.648 C 3.177 -45.446 2.999 -48.112 3.645 -50.185 C 3.932 -51.121 4.188 -52.034 3.719 -52.956 C 3.231 -53.921 2.328 -54.341 1.763 -55.224 C 1.272 -55.99 1.169 -57.089 1.201 -57.972 C 1.256 -59.433 .204 -60.387 -1.22 -60.483 C -2.004 -60.535 -2.788 -60.288 -3.569 -60.288 C -5.261 -60.292 -6.578 -61.554 -7.572 -63.038 C -8.573 -64.519 -8.728 -66.546 -7.721 -66.907 C -6.972 -67.245 -6.062 -66.657 -5.648 -66.03 C -5.455 -65.743 -5.313 -65.417 -5.129 -65.119 C -4.909 -64.755 -4.464 -64.328 -4.099 -64.122 C -2.724 -63.354 -1.484 -63.76 0 -63.946 C 1.218 -64.095 2.376 -63.8 3.273 -62.943 C 4.119 -62.13 4.217 -60.903 4.21 -59.788 C 4.21 -58.563 4.423 -57.219 5.023 -56.138 C 5.33 -55.595 5.862 -55.269 6.369 -54.939 C 6.883 -54.618 7.377 -54.365 7.667 -53.804 C 8.009 -53.154 8.025 -52.207 7.877 -51.5 C 7.576 -50.122 6.821 -48.965 7.051 -47.499 C 7.296 -45.922 8.455 -44.757 9.307 -43.485 C 10.169 -42.181 10.501 -40.481 9.988 -38.987 C 9.591 -37.851 8.807 -36.908 8.038 -36.008 C 7.18 -35.009 6.637 -34.161 6.188 -32.912 C 5.604 -31.289 5.385 -28.577 5.843 -26.896 C 6.102 -25.941 6.515 -24.833 5.855 -23.938 C 5.481 -23.42 4.927 -23.094 4.391 -22.763 C 2.983 -21.895 2.041 -20.58 1.327 -19.101 C .498 -17.397 .266 -15.655 -.948 -14.121 C -1.523 -13.389 -2.595 -12.773 -3.498 -12.576 C -4.66 -12.321 -5.984 -12.515 -7.159 -12.23 C -8.473 -11.909 -9.464 -11.28 -10.451 -10.356 C -11.543 -9.319 -15.461 -6.775 -15.816 -6.207 C -16.953 -4.403 -14.325 -4.33 -13.124 -4.698 C -11.917 -5.064 -8.415 -7.543 -7.182 -7.996 C -5.787 -8.505 -4.306 -8.71 -2.834 -8.87 C -1.284 -9.046 .523 -9.39 1.744 -10.428 C 2.36 -10.954 2.848 -11.796 3.241 -12.499 C 4.339 -14.477 4.545 -16.997 5.959 -18.783 C 6.74 -19.763 7.709 -20.355 8.755 -20.998 C 10.459 -22.042 10.885 -23.197 10.736 -25.176 C 10.607 -26.942 9.742 -28.585 10.201 -30.375 C 10.621 -32.011 11.712 -33.377 12.647 -34.752 C 14.507 -37.483 15.76 -40.714 13.719 -43.765 C 12.699 -45.293 11.188 -47.165 11.55 -49.104 C 11.886 -50.926 13.164 -52.644 12.583 -54.562 C 12.351 -55.323 11.873 -56.026 11.318 -56.604 C 10.595 -57.357 9.549 -57.692 8.913 -58.547 C 8.232 -59.466 8.048 -60.681 8.167 -61.794 C 8.319 -63.251 8.277 -64.851 7.754 -66.237 C 7.173 -67.794 6.228 -68.491 4.639 -68.93 C 2.473 -69.534 .194 -68.673 -1.962 -69.399 C -2.718 -69.654 -3.596 -70.362 -3.848 -71.15 C -4.202 -72.285 -4.002 -73.484 -4.234 -74.635 C -4.399 -75.455 -5.125 -76.396 -5.829 -76.828 C -7.662 -77.952 -8.443 -78.021 -8.935 -80.081 C -9.219 -81.267 -9.977 -85.442 -10.193 -86.654 C -10.354 -87.579 -10.768 -88.781 -9.36 -88.309 C -8.267 -87.936 -7.259 -87.15 -6.333 -86.479 C -4.957 -85.48 -3.754 -84.261 -2.756 -82.889 C -1.917 -81.735 .136 -79.058 .62 -79.963 C 1.065 -80.868 .781 -83.751 .833 -83.989 C .872 -84.207 .994 -84.353 1.314 -84.234 C 2.68 -83.729 3.723 -82.382 4.487 -81.212 C 4.871 -80.624 5.204 -80.007 5.521 -79.39 C 5.85 -78.743 6.205 -78.106 6.46 -77.429 C 7.709 -74.093 7.551 -72.921 7.961 -72.118 C 8.303 -71.457 8.768 -71.801 9.042 -72.325 C 9.4 -73.017 9.523 -73.863 9.594 -74.632 C 9.626 -74.954 9.646 -76.112 10.162 -76.116 C 10.479 -76.116 10.824 -75.442 10.943 -75.24 C 12.402 -72.73 13.345 -69.931 13.742 -67.062 C 14.252 -63.453 13.5 -61.39 14.059 -61.076 C 14.62 -60.757 16.415 -64.222 16.883 -64.333 C 17.309 -64.435 17.645 -63.586 17.748 -63.272 C 18.29 -61.612 18.594 -59.823 18.539 -58.056 C 18.48 -56.431 18.115 -54.47 17.541 -52.94 C 17.251 -52.173 17.645 -49.994 18.058 -50.323 C 18.594 -50.766 18.987 -51.314 19.433 -51.844 C 19.672 -52.142 20.278 -52.919 20.746 -52.644 C 21.137 -52.417 20.918 -49.438 20.854 -48.602 C 20.646 -45.777 20.104 -42.659 18.396 -40.302 C 18.104 -39.894 17.406 -39.148 17.738 -38.595 C 18.01 -38.14 19.395 -39.04 19.395 -39.04 " fill="#ffffff"/>
<path transform="matrix(1,0,0,-1,99.875,136.42169)" d="M 0 0 C -.185 -.627 -1.152 -.821 -1.569 -.811 C -2.74 -.768 -4.651 -.279 -9.019 -.279 C -13.387 -.279 -15.333 -.768 -16.501 -.811 C -16.925 -.821 -17.741 -.562 -17.925 .063 C -18.254 1.204 -15.252 3.525 -8.87 3.525 C -2.476 3.525 .329 1.14 0 0 M 13.399 21.052 C 12.812 21.562 11.862 21.186 11.313 20.8 C 8.17 18.577 6.788 7.49 5.058 2.793 C 4.622 1.594 3.464 -1.32 3.083 -1.32 C 2.702 -1.32 2.999 1.28 2.921 1.969 C 2.851 2.571 2.382 2.851 1.853 3.029 C 1.853 3.029 -2.985 5.6 -8.932 5.6 C -14.878 5.6 -19.927 3.029 -19.927 3.029 C -20.449 2.851 -20.927 2.571 -20.991 1.969 C -21.069 1.28 -20.785 -1.32 -21.288 -1.32 C -21.792 -1.32 -22.78 1.721 -23.219 2.92 C -24.942 7.62 -26.437 18.577 -29.584 20.8 C -30.133 21.186 -31.075 21.562 -31.663 21.052 C -32.47 20.343 -31.786 19.003 -31.554 18.202 C -31.308 17.378 -31.082 16.552 -30.862 15.718 C -30.526 14.401 -28.938 8.483 -27.741 3.816 C -25.446 -4.74 -21.456 -7.723 -20.546 -7.926 C -19.942 -8.055 -20.249 -3.188 -19.629 -3.016 C -19.003 -2.846 -15.781 -9.346 -14.636 -9.217 C -13.961 -9.082 -14.399 -4.092 -13.857 -3.756 C -13.321 -3.42 -9.903 -9.049 -9.184 -9.049 C -8.467 -9.049 -4.854 -3.42 -4.315 -3.756 C -3.776 -4.092 -4.109 -9.082 -3.438 -9.217 C -2.288 -9.346 .826 -2.846 1.449 -3.016 C 2.069 -3.188 1.866 -8.055 2.476 -7.926 C 3.386 -7.723 7.376 -4.74 9.674 3.816 C 10.868 8.483 12.26 14.401 12.599 15.718 C 12.812 16.552 13.044 17.378 13.29 18.202 C 13.522 19.003 14.203 20.343 13.399 21.052 " fill="#ffffff"/>
<path transform="matrix(1,0,0,-1,98.8711,115.824)" d="M 0 0 C -.097 1.061 -.623 2.148 -1.63 2.614 C -2.324 2.933 -3.351 3.086 -4.083 2.855 C -4.854 2.612 -5.029 1.892 -5.3 1.22 C -5.808 -.024 -7.398 -3.615 -8.115 -3.615 C -8.838 -3.615 -10.297 -.024 -10.801 1.22 C -11.078 1.892 -11.246 2.612 -12.021 2.855 C -12.757 3.086 -13.783 2.933 -14.474 2.614 C -15.481 2.148 -16.004 1.061 -16.104 0 C -16.249 -1.627 -14.991 -6.974 -14.184 -7.739 C -13.558 -8.331 -12.896 -8.478 -12.054 -8.452 C -10.724 -8.405 -9.994 -8.212 -8.054 -8.212 C -6.107 -8.212 -5.384 -8.405 -4.055 -8.452 C -3.209 -8.478 -2.547 -8.331 -1.921 -7.739 C -1.11 -6.974 .148 -1.627 0 0 " fill="#ffffff"/>
<path transform="matrix(1,0,0,-1,98.8516,108.284)" d="M 0 0 C -.503 -.58 -.704 -2.363 -.597 -2.842 C -.419 -3.623 .136 -3.578 .626 -3.578 C 1.224 -3.578 1.071 -2.254 1.021 -1.789 C .969 -1.24 .923 -.607 .665 -.146 C .484 .175 .245 .241 0 0 " fill="#ffffff"/>
<path transform="matrix(1,0,0,-1,95.792,107.642398)" d="M 0 0 C -.795 0 -.872 -2.223 -.785 -2.858 C -.714 -3.338 -.343 -3.493 .041 -3.541 C .335 -3.58 .613 -3.573 .881 -3.38 C 1.155 -3.185 1.055 -.999 .787 -.534 C .629 -.262 .316 0 0 0 " fill="#ffffff"/>
<path transform="matrix(1,0,0,-1,92.751,106.996898)" d="M 0 0 C -.207 .052 -.381 .008 -.533 -.104 C -.759 -.264 -.904 -.551 -1.004 -.841 C -1.24 -1.516 -1.243 -2.608 -1.039 -3.275 C -.871 -3.843 -.029 -3.754 .374 -3.725 C .652 -3.707 .7 -3.65 .774 -3.316 C .916 -2.773 .904 -2.063 .842 -1.498 C .774 -.912 .522 -.136 0 0 " fill="#ffffff"/>
<path transform="matrix(1,0,0,-1,119.7686,81.3977)" d="M 0 0 C -.367 -1.068 -1.074 -2.129 -2.098 -2.657 C -3.299 -3.275 -4.848 -3.147 -6.12 -2.797 C -6.424 -2.714 -8.547 -1.867 -7.563 -1.411 C -7.443 -1.355 -7.169 -1.334 -7.033 -1.322 C -6.158 -1.217 -5.358 -1.197 -4.525 -.941 C -3.137 -.515 -2.107 .232 -1.197 1.356 C -.968 1.637 -.594 2.52 -.116 2.208 C .395 1.875 .155 .46 0 0 M -2.582 3.678 C -3.305 2.363 -4.432 1.437 -5.855 .926 C -6.966 .529 -8.16 .36 -9.335 .447 C -10.452 .529 -11.872 .914 -12.789 1.548 C -12.967 1.666 -13.402 1.929 -13.428 2.155 C -13.435 2.208 -13.428 2.251 -13.415 2.293 C -13.318 2.518 -12.925 2.594 -12.725 2.604 C -12.04 2.639 -11.35 2.553 -10.655 2.587 C -8.683 2.686 -6.452 3.123 -4.771 4.48 C -4.241 4.915 -3.821 5.417 -3.431 5.972 C -3.247 6.236 -2.607 7.148 -2.233 6.885 C -1.646 6.482 -2.191 4.38 -2.582 3.678 M 1.104 -6.196 C .891 -7.384 .846 -7.016 .575 -8.194 C .246 -9.623 -.135 -11.863 -.71 -13.208 C -.949 -13.757 -1.223 -14.292 -1.543 -14.798 C -2.098 -15.66 -2.631 -16.875 -1.917 -17.832 C -1.427 -18.475 -.59 -18.344 .084 -18.082 C 1.362 -17.582 2.873 -16.285 3.315 -14.937 C 3.929 -13.085 3.105 -10.078 3.105 -8.964 C 3.105 -7.852 3.603 -6.189 3.916 -5.503 C 4.232 -4.826 4.933 -3.584 5.152 -3.005 C 5.365 -2.432 5.378 -1.801 5.155 -1.23 C 4.881 -.531 4.223 -.147 3.79 .447 C 2.502 2.228 2.134 7.481 1.918 7.308 C 1.711 7.11 1.369 5.489 .904 4.865 C .678 4.564 .165 4.053 -.245 4.232 C -.774 4.464 -.6 6.327 -.633 6.771 C -.742 8.375 -.707 11.007 -2.854 11.149 C -3.593 11.195 -4.119 10.328 -4.441 9.776 C -5.132 8.609 -5.855 7.438 -6.959 6.609 C -7.967 5.854 -9.29 5.376 -10.658 5.169 C -12.299 4.97 -13.647 5.05 -15.365 5.363 C -17.076 5.68 -17.153 4.387 -17.263 3.625 C -17.392 2.665 -17.715 1.075 -16.494 .776 C -16.091 .678 -15.646 .675 -15.255 .531 C -14.422 .225 -14.28 -3.028 -13.512 -3.318 C -12.124 -3.844 -9.857 -2.314 -9.315 -2.647 C -8.813 -2.968 -7.928 -4.411 -7.431 -4.747 C -6.481 -5.387 -5.461 -5.126 -4.832 -5.418 C -4.377 -5.629 -4.335 -6.015 -4.035 -6.404 C -3.247 -7.41 -3.376 -8.864 -2.375 -7.452 C -1.84 -6.695 -1.172 -5.75 -.594 -4.958 C .598 -3.283 1.201 -5.66 1.104 -6.196 " fill="#ffffff"/>
<path transform="matrix(1,0,0,-1,107.2021,73.934398)" d="M 0 0 C -1.01 -.034 -3.537 .165 -3.27 1.764 C -2.873 4.094 -.364 4.795 1.401 4.477 C 2.482 4.285 5.949 4.014 4.839 2.51 C 3.902 1.243 1.508 .051 0 0 " fill="#ffffff"/>
<path transform="matrix(1,0,0,-1,74.4189,73.934398)" d="M 0 0 C 1.011 -.034 3.541 .165 3.271 1.764 C 2.877 4.094 .371 4.795 -1.397 4.477 C -2.479 4.285 -5.952 4.014 -4.838 2.51 C -3.902 1.243 -1.507 .051 0 0 " fill="#ffffff"/>
<path transform="matrix(1,0,0,-1,215.4277,46.5027)" d="M 0 0 L -42.031 -12.801 L -20.043 -23.66 L -61.793 -85.451 L -42.311 -98.254 L 127.203 -51.213 C 127.203 -51.213 107.998 -32.285 107.162 -32.285 C 106.326 -32.285 106.049 -4.174 106.049 -4.174 L 72.648 -20.875 L 60.402 14.475 Z " fill="#000000"/>
<path transform="matrix(1,0,0,-1,216.5586,57.412897)" d="M 0 0 L 1.607 1.221 L 7.771 6.201 L 8.941 .389 L 6.639 -4.529 L 4.783 -1.881 L 1.816 -18.361 L 5.719 -19.936 L 9.611 -11.621 L 12.863 -11.012 L 9.033 -24.33 L 3.725 -24.43 L -3.725 -20.033 " fill="#ffffff"/>
<path transform="matrix(1,0,0,-1,229.293,81.3582)" d="M 0 0 L -1.74 32.27 L 2.707 29 L 4.574 10.844 L 9.582 15.209 L 15.152 15.207 Z " fill="#ffffff"/>
<path transform="matrix(1,0,0,-1,258.459,64.35619)" d="M 0 0 L -2.229 -4.539 L -1.615 -11.201 L -5.334 -10.326 L -5.764 -6.986 L -10.813 -10.553 L -15.436 -8.066 L -17.33 12.508 L -12.795 9.791 L -12.504 5.781 L -11.5 -6.676 L -6.668 -3.416 L -8.449 16.238 L -3.959 13.207 L -2.639 -.189 L -2.541 -1.209 Z " fill="#ffffff"/>
<path transform="matrix(1,0,0,-1,259.625,46.9832)" d="M 0 0 L 1.158 -4.59 L 1.24 -4.451 L 3.982 1.963 Z M 7.746 -8.932 C 7.354 -9.17 1.756 -12.424 1.756 -12.424 L 2.225 -16.994 Z M 13.625 -8.604 L 3.258 -22.184 L 1.459 -24.582 L -3.369 -25.236 L -.855 -21.492 L -2.459 -9.029 L -3.25 -1.689 L -3.27 -1.615 L -8.318 -1.646 L 3.199 5.891 L 9.764 3.027 L 3.09 -7.541 L 9.125 -3.666 Z " fill="#ffffff"/>
<path transform="matrix(1,0,0,-1,190.459,108.575)" d="M 0 0 C .35 .92 .707 1.924 1.078 3.012 C 1.453 4.096 1.809 5.113 2.15 6.059 C 2.527 7.172 2.908 8.275 3.295 9.367 L -.258 6.836 Z M 7.791 13.676 L 2 -4.281 L .123 -2.617 L 1.527 -16.938 L -2.541 -13.281 L -4.402 3.947 L -6.449 2.572 L -9 4.551 L 3.295 14.584 Z " fill="#ffffff"/>
<path transform="matrix(1,0,0,-1,209.252,95.8601)" d="M 0 0 L -5.922 -2.977 L -5.697 -9.381 C -5.697 -9.381 -.584 -1.146 0 0 M -2.334 -11.125 L 5.402 -18.084 L 3.955 -23.158 C 3.891 -23.012 -4.947 -14.469 -5.396 -14.078 L -4.857 -26.457 L -8.709 -23.289 L -10.074 -5.223 L -11.834 -6.289 L -14.459 -3.039 L -.75 3.961 L 5.967 2.373 Z " fill="#ffffff"/>
<path transform="matrix(1,0,0,-1,219.25,111.0242)" d="M 0 0 L 3.875 13.625 L -1.063 16.188 L -4.688 3.375 Z M 7.688 15.563 L 5.613 6.922 L 2.063 -7.25 L -8.813 2.75 L -3.25 21.438 Z " fill="#ffffff"/>
<path transform="matrix(1,0,0,-1,252.6875,102.8992)" d="M 0 0 L 3.875 13.625 L -1.063 16.188 L -4.688 3.375 Z M 7.688 15.563 L 5.615 6.922 L 2.063 -7.25 L -8.813 2.75 L -3.25 21.438 Z " fill="#ffffff"/>
<path transform="matrix(1,0,0,-1,246.4375,108.8992)" d="M 0 0 L -3 -4.875 L -6.264 12.668 L -9.938 -5.688 L -15.719 8.916 L -14.875 -7.063 L -19 -3.125 L -20.563 22.313 L -15.551 20.879 L -10.75 7.938 L -8.688 21.688 L -3.75 25.875 Z " fill="#ffffff"/>
<path transform="matrix(1,0,0,-1,265,81.2117)" d="M 0 0 L 3.234 -23.67 L -1.438 -20.625 L -4.15 -1.359 L -9.375 -3.125 L -13.957 -1.73 L 2.375 4.75 L 7.125 2.5 Z " fill="#ffffff"/>
<path transform="matrix(1,0,0,-1,283.25,92.3367)" d="M 0 0 L 4.125 -.688 L -5.938 -9.063 L -11.375 -8.063 L -7.5 -4.875 L -8.188 3.375 L -11.438 4.625 L -8.857 6.896 L -9.623 11.996 L -11.375 11.25 L -14.375 13.625 L -3.188 20 L 1.875 18.896 L -5.813 14.75 L -5.188 10 L -2.875 11.896 L 1.805 11.725 L -4.674 5.941 L -3.375 -2.5 Z " fill="#ffffff"/>
<path transform="matrix(1,0,0,-1,313,85.1707)" d="M 0 0 L .375 -4.438 L -8 -8.188 L -12.926 -7.387 L -4.75 -1.688 L -14.438 8.555 L -7.438 18.875 L -2.742 20.033 L -1.125 15.75 L -3.313 9.75 L -5.125 14.688 L -9.082 9.871 Z " fill="#ffffff"/>
<path transform="matrix(1,0,0,-1,296.502,71.4851)" d="M 0 0 L -5.922 -2.977 L -5.697 -9.381 C -5.697 -9.381 -.584 -1.146 0 0 M -2.334 -11.125 L 4.373 -17.123 L 3.955 -23.158 C 3.891 -23.012 -4.947 -14.469 -5.396 -14.078 L -4.857 -26.457 L -8.709 -23.289 L -10.074 -5.223 L -11.293 -5.959 L -16.127 -3.959 L -.75 3.961 L 5.967 2.373 Z " fill="#ffffff"/>
</g>
</g>
</g>
</svg>
